<svg xmlns="http://www.w3.org/2000/svg" viewBox="0 0 128.71 89.75"><defs><style>.cls-1{fill:#794a6b;}.cls-2{fill:#e7a614;}.cls-3{fill:none;stroke:#3a2b35;stroke-linecap:round;stroke-linejoin:round;stroke-width:3px;}</style></defs><title>card</title><g id="Layer_2" data-name="Layer 2"><g id="Icon_Set" data-name="Icon Set"><rect class="cls-1" x="23.58" y="71.69" width="103.63" height="7.75"/><path class="cls-1" d="M26.91,16.44A6.55,6.55,0,1,1,20.36,9.9,6.55,6.55,0,0,1,26.91,16.44Z"/><path class="cls-2" d="M30.56,9.9a6.43,6.43,0,0,0-2.8.64,9.46,9.46,0,0,1,0,11.81,6.43,6.43,0,0,0,2.8.64,6.55,6.55,0,1,0,0-13.09Z"/><line class="cls-3" x1="13.55" y1="50.89" x2="25.46" y2="50.89"/><line class="cls-3" x1="36.09" y1="50.89" x2="48" y2="50.89"/><line class="cls-3" x1="58.63" y1="50.89" x2="70.54" y2="50.89"/><line class="cls-3" x1="81.17" y1="50.89" x2="93.08" y2="50.89"/><rect class="cls-3" x="1.5" y="1.5" width="103.63" height="64.67" rx="6.13" ry="6.13"/><path class="cls-3" d="M105.13,23.58h15.12a7,7,0,0,1,7,7V81.29a7,7,0,0,1-7,7H30.54a7,7,0,0,1-7-7V66.17"/><rect class="cls-1" x="75.43" y="9.9" width="17.65" height="13.09" rx="2.28" ry="2.28"/></g></g></svg>