<svg xmlns="http://www.w3.org/2000/svg" viewBox="0 0 131.24 95.56"><defs><style>.cls-1,.cls-2,.cls-3{fill:none;stroke:#000;stroke-width:3px;}.cls-1,.cls-3{stroke-linecap:round;stroke-linejoin:round;}.cls-2{stroke-miterlimit:10;}.cls-3{stroke-dasharray:0.01 8.08;}</style></defs><title>computer_clock</title><g id="Layer_2" data-name="Layer 2"><g id="Icon_Set" data-name="Icon Set"><path class="cls-1" d="M56.62,76.74H72.69a32.09,32.09,0,0,0,.43,8.14,11.31,11.31,0,0,0,6.26,7.56h0c.94.48.5,1.62-.63,1.62H34.48c-1.13,0-1.57-1.14-.63-1.62h0a11.29,11.29,0,0,0,6.26-7.56,32.09,32.09,0,0,0,.43-8.14Z"/><path class="cls-1" d="M57.69,70.12a1.08,1.08,0,1,1-1.07-1.07A1.07,1.07,0,0,1,57.69,70.12Z"/><path class="cls-1" d="M93.73,76.74H6.94A5.44,5.44,0,0,1,1.5,71.3V63.51H22.82"/><path class="cls-1" d="M93.65,63.51H1.5V7.4A5.9,5.9,0,0,1,7.4,1.5h98.44a5.9,5.9,0,0,1,5.89,5.9V34.77"/><line id="_Path_" data-name="&lt;Path&gt;" class="cls-2" x1="126.13" y1="82.22" x2="97.34" y2="82.22"/><path id="_Path_2" data-name="&lt;Path&gt;" class="cls-2" d="M127,94.06H96.49a2.77,2.77,0,0,1-2.76-2.77V37.53a2.76,2.76,0,0,1,2.76-2.76H127a2.76,2.76,0,0,1,2.76,2.76V91.29A2.77,2.77,0,0,1,127,94.06Z"/><path id="_Path_3" data-name="&lt;Path&gt;" class="cls-2" d="M112.69,88.19a1,1,0,1,0-1,1A1,1,0,0,0,112.69,88.19Z"/><polyline id="_Path_4" data-name="&lt;Path&gt;" class="cls-1" points="108.17 40.76 111.73 40.76 115.3 40.76"/><path class="cls-1" d="M73.73,32.82A17.11,17.11,0,1,0,56.62,49.93,17.11,17.11,0,0,0,73.73,32.82Z"/><circle class="cls-3" cx="56.62" cy="32.82" r="24.46" transform="translate(-5.98 13.73) rotate(-13.14)"/><line class="cls-1" x1="56.62" y1="32.82" x2="56.62" y2="23.7"/><line class="cls-1" x1="56.62" y1="32.82" x2="62.93" y2="39.14"/></g></g></svg>