<svg xmlns="http://www.w3.org/2000/svg" viewBox="0 0 133.73 90.75"><defs><style>.cls-1{fill:#794a6b;}.cls-2{fill:none;stroke:#344154;stroke-linecap:round;stroke-linejoin:round;stroke-width:3px;}</style></defs><title>Dashboard</title><g id="Layer_2" data-name="Layer 2"><g id="Icon_Set" data-name="Icon Set"><g id="_Group_" data-name="&lt;Group&gt;"><g id="_Group_2" data-name="&lt;Group&gt;"><rect id="_Rectangle_" data-name="&lt;Rectangle&gt;" class="cls-1" x="23.82" y="18.37" width="32.6" height="16.19"/><line id="_Path_" data-name="&lt;Path&gt;" class="cls-2" x1="23.82" y1="42" x2="56.42" y2="42"/><line id="_Path_2" data-name="&lt;Path&gt;" class="cls-2" x1="23.82" y1="50.53" x2="56.42" y2="50.53"/><line id="_Path_3" data-name="&lt;Path&gt;" class="cls-2" x1="23.82" y1="59.07" x2="56.42" y2="59.07"/></g><path id="_Rectangle_2" data-name="&lt;Rectangle&gt;" class="cls-2" d="M1.5,79.15H132.23a0,0,0,0,1,0,0v5.52a4.58,4.58,0,0,1-4.58,4.58H6.08A4.58,4.58,0,0,1,1.5,84.66V79.15A0,0,0,0,1,1.5,79.15Z"/><path id="_Rectangle_3" data-name="&lt;Rectangle&gt;" class="cls-2" d="M14.34,1.5H119.39a4.32,4.32,0,0,1,4.32,4.32V79.15a0,0,0,0,1,0,0H10a0,0,0,0,1,0,0V5.82A4.32,4.32,0,0,1,14.34,1.5Z"/><g id="_Group_3" data-name="&lt;Group&gt;"><path id="_Path_4" data-name="&lt;Path&gt;" class="cls-1" d="M98.54,38.2a2.07,2.07,0,0,0-1.46-1.68l-3.31-.72a8.26,8.26,0,0,1-3.94,2,8.26,8.26,0,0,1-3.94-2l-3.31.72a2.06,2.06,0,0,0-1.46,1.68l-.72,3.44H99.26Z"/><ellipse id="_Path_5" data-name="&lt;Path&gt;" class="cls-1" cx="89.82" cy="30.58" rx="4.18" ry="4.53"/><rect id="_Rectangle_4" data-name="&lt;Rectangle&gt;" class="cls-2" x="77.1" y="17.64" width="25.44" height="25.44"/></g></g></g></g></svg>