<svg xmlns="http://www.w3.org/2000/svg" viewBox="0 0 150.39 128.8"><defs><style>.cls-1{fill:#e7a614;}.cls-1,.cls-2,.cls-3,.cls-4,.cls-5,.cls-6{stroke:#000;}.cls-1,.cls-3,.cls-5{stroke-miterlimit:10;}.cls-2,.cls-4,.cls-5,.cls-6{fill:none;}.cls-2,.cls-4,.cls-6{stroke-linejoin:round;}.cls-2,.cls-3,.cls-4,.cls-5,.cls-6{stroke-width:3px;}.cls-3{fill:#fff;}.cls-4,.cls-5,.cls-6{stroke-linecap:round;}.cls-6{stroke-dasharray:0.01 8.08;}</style></defs><title>demo</title><g id="Layer_2" data-name="Layer 2"><g id="Icon_Set" data-name="Icon Set"><rect class="cls-1" x="2.17" y="2.12" width="116.97" height="24.47"/><circle class="cls-2" cx="119.88" cy="98.28" r="15.48" transform="translate(-33.77 77.7) rotate(-31.72)"/><path class="cls-2" d="M148.89,100.11V96.46A3,3,0,0,0,146,93.51h0a2.91,2.91,0,0,1-2.81-2.08,23.81,23.81,0,0,0-2-4.74,2.94,2.94,0,0,1,.51-3.47h0a2.94,2.94,0,0,0,0-4.16l-2.59-2.58a2.94,2.94,0,0,0-4.16,0h0a2.93,2.93,0,0,1-3.47.51,23.78,23.78,0,0,0-4.74-2,2.93,2.93,0,0,1-2.08-2.82h0a2.94,2.94,0,0,0-2.94-2.94h-3.66a2.94,2.94,0,0,0-2.94,2.94h0A2.93,2.93,0,0,1,113,75a23.94,23.94,0,0,0-4.73,2,2.93,2.93,0,0,1-3.47-.51h0a2.94,2.94,0,0,0-4.16,0l-2.59,2.58a2.94,2.94,0,0,0,0,4.16h0a2.91,2.91,0,0,1,.51,3.47,24.38,24.38,0,0,0-2,4.74,2.92,2.92,0,0,1-2.81,2.08h0a2.94,2.94,0,0,0-2.94,2.95v3.65a2.93,2.93,0,0,0,2.94,2.94h0a2.93,2.93,0,0,1,2.81,2.09,24.29,24.29,0,0,0,2,4.73,2.91,2.91,0,0,1-.51,3.47h0a3,3,0,0,0,0,4.17l2.59,2.58a2.94,2.94,0,0,0,4.16,0h0a2.93,2.93,0,0,1,3.47-.51,24.55,24.55,0,0,0,4.73,2,2.92,2.92,0,0,1,2.09,2.81h0a3,3,0,0,0,2.94,3h3.66a3,3,0,0,0,2.94-3h0a2.93,2.93,0,0,1,2.08-2.81,24.38,24.38,0,0,0,4.74-2,2.93,2.93,0,0,1,3.47.51h0a2.94,2.94,0,0,0,4.16,0l2.59-2.58a3,3,0,0,0,0-4.17h0a2.94,2.94,0,0,1-.51-3.47,23.72,23.72,0,0,0,2-4.73,2.92,2.92,0,0,1,2.81-2.09h0A2.94,2.94,0,0,0,148.89,100.11Z"/><path class="cls-3" d="M19.72,14.29a3.43,3.43,0,1,0-3.42,3.42A3.43,3.43,0,0,0,19.72,14.29Z"/><path class="cls-3" d="M34.8,14.29a3.43,3.43,0,1,0-3.43,3.42A3.43,3.43,0,0,0,34.8,14.29Z"/><path class="cls-3" d="M49.88,14.29a3.43,3.43,0,1,0-3.43,3.42A3.44,3.44,0,0,0,49.88,14.29Z"/><path class="cls-4" d="M83.13,98.28H3.7a2.19,2.19,0,0,1-2.2-2.2V3.7A2.19,2.19,0,0,1,3.7,1.5h114a2.2,2.2,0,0,1,2.2,2.2V61.89M1.5,27.33H119.88"/><line class="cls-5" x1="61.3" y1="14.41" x2="108.46" y2="14.41"/><line class="cls-4" x1="12.87" y1="85.43" x2="12.87" y2="90.31"/><line class="cls-4" x1="18.8" y1="85.43" x2="18.8" y2="90.31"/><line class="cls-4" x1="27.1" y1="87.87" x2="83.12" y2="87.87"/><path class="cls-4" d="M77.72,57.85a16,16,0,1,0-16,16A16,16,0,0,0,77.72,57.85Z"/><circle class="cls-6" cx="61.68" cy="57.85" r="22.93" transform="translate(-11.54 15.54) rotate(-13.14)"/><line class="cls-4" x1="61.68" y1="57.85" x2="61.68" y2="49.3"/><line class="cls-4" x1="61.68" y1="57.85" x2="67.6" y2="63.77"/></g></g></svg>