<svg xmlns="http://www.w3.org/2000/svg" viewBox="0 0 112.84 127.45"><defs><style>.cls-1{fill:none;stroke:#666;stroke-linecap:round;stroke-linejoin:round;stroke-width:3px;}.cls-2{fill:#794a6b;}</style></defs><title>device_punch</title><g id="Layer_2" data-name="Layer 2"><g id="Icon_Set" data-name="Icon Set"><line id="_Path_" data-name="&lt;Path&gt;" class="cls-1" x1="42.37" y1="8.92" x2="54.12" y2="8.92"/><path id="_Path_2" data-name="&lt;Path&gt;" class="cls-1" d="M55,126H8.89a7.39,7.39,0,0,1-7.39-7.39V8.89A7.39,7.39,0,0,1,8.89,1.5H87.61A7.39,7.39,0,0,1,95,8.89V44"/><line id="_Path_3" data-name="&lt;Path&gt;" class="cls-1" x1="42.37" y1="118.53" x2="54.12" y2="118.53"/><line id="_Path_4" data-name="&lt;Path&gt;" class="cls-1" x1="1.5" y1="16.34" x2="95" y2="16.34"/><line id="_Path_5" data-name="&lt;Path&gt;" class="cls-1" x1="54.12" y1="111.11" x2="1.5" y2="111.11"/><rect id="_Rectangle_" data-name="&lt;Rectangle&gt;" class="cls-2" x="11.72" y="26.63" width="12.76" height="12.76" rx="3.23" ry="3.23"/><rect id="_Rectangle_2" data-name="&lt;Rectangle&gt;" class="cls-2" x="31.51" y="26.63" width="12.76" height="12.76" rx="3.23" ry="3.23"/><rect id="_Rectangle_3" data-name="&lt;Rectangle&gt;" class="cls-2" x="51.29" y="26.63" width="12.76" height="12.76" rx="3.23" ry="3.23"/><rect id="_Rectangle_4" data-name="&lt;Rectangle&gt;" class="cls-2" x="11.72" y="47.27" width="12.76" height="12.76" rx="3.23" ry="3.23"/><rect id="_Rectangle_5" data-name="&lt;Rectangle&gt;" class="cls-2" x="31.51" y="47.27" width="12.76" height="12.76" rx="3.23" ry="3.23"/><rect id="_Rectangle_6" data-name="&lt;Rectangle&gt;" class="cls-2" x="11.72" y="67.91" width="12.76" height="12.76" rx="3.23" ry="3.23"/><rect id="_Rectangle_7" data-name="&lt;Rectangle&gt;" class="cls-2" x="31.51" y="67.91" width="12.76" height="12.76" rx="3.23" ry="3.23"/><path class="cls-1" d="M82.41,63V50.64h4.82a4.82,4.82,0,0,1,4.82,4.82"/><path class="cls-1" d="M111.31,72.71a95.9,95.9,0,0,1-4.55,26.89,48.88,48.88,0,0,0-1.34,5H84.7"/><path class="cls-1" d="M82.41,50.64V37.83A4.82,4.82,0,0,0,77.59,33h0a4.82,4.82,0,0,0-4.82,4.82V73.53l-3.33-8.65a5.72,5.72,0,0,0-5.34-3.66h0a5.72,5.72,0,0,0-5.72,5.72h0a32,32,0,0,0,4.49,16.45A37,37,0,0,0,67,89c5.92,6.62,7.49,15.6,7.49,15.6"/><path class="cls-1" d="M92.06,66.56V54.24h4.82a4.82,4.82,0,0,1,4.82,4.82V70.74"/><path class="cls-1" d="M101.7,60.4h4.82a4.82,4.82,0,0,1,4.82,4.82v7.49"/><rect class="cls-1" x="70.7" y="111.11" width="37.39" height="14.84"/><circle class="cls-1" cx="99.77" cy="118.53" r="0.92"/></g></g></svg>