<svg xmlns="http://www.w3.org/2000/svg" viewBox="0 0 130.24 94.56"><defs><style>.cls-1,.cls-2,.cls-3{fill:none;stroke:#000;stroke-width:2px;}.cls-1,.cls-3{stroke-linecap:round;stroke-linejoin:round;}.cls-2{stroke-miterlimit:10;}.cls-3{stroke-dasharray:0.01 8.08;}</style></defs><title>dtc</title><g id="Layer_2" data-name="Layer 2"><g id="Icon_Set" data-name="Icon Set"><path class="cls-1" d="M56.12,76.24H72.19a32.09,32.09,0,0,0,.43,8.14,11.31,11.31,0,0,0,6.26,7.56h0c.94.48.5,1.62-.63,1.62H34c-1.13,0-1.57-1.14-.63-1.62h0a11.29,11.29,0,0,0,6.26-7.56A32.09,32.09,0,0,0,40,76.24Z"/><path class="cls-1" d="M57.19,69.62a1.08,1.08,0,1,1-1.07-1.07A1.07,1.07,0,0,1,57.19,69.62Z"/><path class="cls-1" d="M93.23,76.24H6.44A5.44,5.44,0,0,1,1,70.8V63H22.32"/><path class="cls-1" d="M93.15,63H1V6.9A5.9,5.9,0,0,1,6.9,1h98.44a5.9,5.9,0,0,1,5.89,5.9V34.27"/><line id="_Path_" data-name="&lt;Path&gt;" class="cls-2" x1="125.63" y1="81.72" x2="96.84" y2="81.72"/><path id="_Path_2" data-name="&lt;Path&gt;" class="cls-2" d="M126.48,93.56H96a2.77,2.77,0,0,1-2.76-2.77V37A2.76,2.76,0,0,1,96,34.27h30.49A2.76,2.76,0,0,1,129.24,37V90.79A2.77,2.77,0,0,1,126.48,93.56Z"/><path id="_Path_3" data-name="&lt;Path&gt;" class="cls-2" d="M112.19,87.69a1,1,0,1,0-1,1A1,1,0,0,0,112.19,87.69Z"/><polyline id="_Path_4" data-name="&lt;Path&gt;" class="cls-1" points="107.67 40.26 111.23 40.26 114.8 40.26"/><path class="cls-1" d="M73.23,32.32A17.11,17.11,0,1,0,56.12,49.43,17.11,17.11,0,0,0,73.23,32.32Z"/><circle class="cls-3" cx="56.12" cy="32.32" r="24.46" transform="translate(-5.88 13.61) rotate(-13.14)"/><line class="cls-1" x1="56.12" y1="32.32" x2="56.12" y2="23.2"/><line class="cls-1" x1="56.12" y1="32.32" x2="62.43" y2="38.64"/></g></g></svg>