<svg xmlns="http://www.w3.org/2000/svg" viewBox="0 0 107.01 123.41"><defs><style>.cls-1,.cls-2,.cls-3{fill:none;stroke:#344154;stroke-linecap:round;stroke-width:3px;}.cls-1{stroke-miterlimit:10;}.cls-2,.cls-3{stroke-linejoin:round;}.cls-3{stroke-dasharray:0.01 5;}</style></defs><title>ess</title><g id="Layer_2" data-name="Layer 2"><g id="Icon_Set" data-name="Icon Set"><path class="cls-1" d="M95.5,117.61l9.75-2-4-20.2A19.92,19.92,0,0,0,94.38,84a16.28,16.28,0,0,0-6.69-3.51l-17.25-5a3.76,3.76,0,0,1-2.69-3.17L67,65.45c5.24-4.78,7-9,7.32-15.09.08-8.88-3.66-25.6-3.66-25.6C66.5,10.7,53.5,11.55,53.5,11.55s-13-.85-17.12,13.22c0,0-3.73,16.71-3.66,25.6C33,56.42,34.8,60.68,40,65.45l-.8,6.83a3.76,3.76,0,0,1-2.69,3.17l-17.25,5A16.28,16.28,0,0,0,12.62,84,19.92,19.92,0,0,0,5.8,95.38l-4,20.2,9.75,2a207,207,0,0,0,42,4.3h0A207,207,0,0,0,95.5,117.61Z"/><polyline class="cls-2" points="67.58 70.68 53.5 83.28 39.43 70.68"/><polyline class="cls-1" points="72.59 82.48 62.66 92.01 53.5 83.28"/><polyline class="cls-1" points="34.41 82.48 44.35 92.01 53.5 83.28"/><line class="cls-1" x1="53.5" y1="110.42" x2="53.5" y2="121.91"/><line class="cls-3" x1="53.5" y1="99.12" x2="53.5" y2="91.1"/><path class="cls-1" d="M53.5,1.5c10.07,0,20.63,5.6,24.85,15a44.81,44.81,0,0,1,3.14,13.22c.74,6.37,1.07,12.42,4.12,18.17a13.75,13.75,0,0,0,11,7.79A20.35,20.35,0,0,1,75.7,64.54"/><path class="cls-1" d="M53.5,1.5c-10.07,0-20.63,5.6-24.85,15a44.81,44.81,0,0,0-3.14,13.22c-.74,6.37-1.07,12.42-4.12,18.17a13.75,13.75,0,0,1-11,7.79,20.35,20.35,0,0,0,20.94,8.84"/></g></g></svg>