<svg xmlns="http://www.w3.org/2000/svg" xmlns:xlink="http://www.w3.org/1999/xlink" viewBox="0 0 44.43 47.2"><defs><style>.cls-1{fill:none;}.cls-2{clip-path:url(#clip-path);}</style><clipPath id="clip-path" transform="translate(0 -0.8)"><rect class="cls-1" width="44.88" height="48.96"/></clipPath></defs><title>finger</title><g id="Layer_2" data-name="Layer 2"><g id="Layer_1-2" data-name="Layer 1"><path d="M21.88,21.63a.8.8,0,0,0-.54,1c0,.08,2.16,7.68,1.57,24.55a.8.8,0,0,0,.77.83h0a.79.79,0,0,0,.79-.77c.6-17.13-1.53-24.74-1.62-25a.81.81,0,0,0-1-.55Z" transform="translate(0 -0.8)"/><g class="cls-2"><path d="M42,14A21.59,21.59,0,0,0,13.79,2.47,25.92,25.92,0,0,0,9.67,4.63a.82.82,0,0,0-.24,1.11A.8.8,0,0,0,10.54,6a24,24,0,0,1,3.87-2,19.76,19.76,0,0,1,7.7-1.55A20,20,0,0,1,40.53,14.61c1.3,3.08,2,8.76,2.31,11.87a.8.8,0,0,0,.79.72h.09a.81.81,0,0,0,.71-.88C44.05,22.41,43.32,17.1,42,14Z" transform="translate(0 -0.8)"/><path d="M7.3,8.57A.8.8,0,0,0,6.18,7.43C1.87,11.67-2.41,19.55,1.6,33a.79.79,0,0,0,.77.57.91.91,0,0,0,.23,0,.8.8,0,0,0,.53-1c-3-10.06-1.55-18.36,4.17-24Z" transform="translate(0 -0.8)"/></g><path d="M22.72,5.61A16.81,16.81,0,0,0,5.94,27a19.45,19.45,0,0,1,.59,2.56A101.22,101.22,0,0,1,6.84,40.8a.8.8,0,1,0,1.59,0,102.54,102.54,0,0,0-.31-11.52,22.57,22.57,0,0,0-.64-2.75A15.19,15.19,0,0,1,22.66,7.21c5.7.2,12.14,5.22,14.09,11,1.68,5,1.7,13.41,1.48,21A.8.8,0,0,0,39,40a.83.83,0,0,0,.82-.78c.21-7.75.19-16.38-1.58-21.57-2.17-6.41-9.14-11.81-15.54-12Z" transform="translate(0 -0.8)"/><path d="M22.11,10.4a12.36,12.36,0,0,0-2.58.28.8.8,0,0,0,.35,1.56,10.4,10.4,0,0,1,11.8,6.11c2,4.59,2.07,12,1.63,24.82a.8.8,0,0,0,.77.83h0a.8.8,0,0,0,.8-.77c.46-13.38.32-20.61-1.75-25.5a12,12,0,0,0-11-7.33Z" transform="translate(0 -0.8)"/><path d="M16.16,13.87a.78.78,0,0,0,.2-1.11.8.8,0,0,0-1.11-.2C11.13,15.45,9.34,21,10.79,26.4a62.39,62.39,0,0,1,1.64,15.2.81.81,0,0,0,1.61,0A62.9,62.9,0,0,0,12.34,26c-1.28-4.73.25-9.59,3.82-12.1Z" transform="translate(0 -0.8)"/><path d="M30,39.21a.8.8,0,0,0-.8-.81h0a.81.81,0,0,0-.8.8c0,.6,0,1.48,0,2.43,0,1.37.07,2.94,0,3.94a.81.81,0,0,0,.78.83h0a.79.79,0,0,0,.79-.77c0-1.05,0-2.64,0-4,0-.93,0-1.79,0-2.38Z" transform="translate(0 -0.8)"/><path d="M22.11,16a6.29,6.29,0,0,0-2.46.5,6.5,6.5,0,0,0-3.53,8.17c.61,1.83,1.11,11.41,1.11,20.93a.81.81,0,0,0,1.61,0c0-8.56-.46-19.2-1.19-21.43a4.8,4.8,0,0,1,4.46-6.57,4.79,4.79,0,0,1,4.42,2.94c1.49,3.53,1.94,9.93,2,14.68a.8.8,0,0,0,.8.78h0a.8.8,0,0,0,.78-.82c-.12-4.88-.58-11.5-2.18-15.27A6.39,6.39,0,0,0,22.11,16Z" transform="translate(0 -0.8)"/></g></g></svg>