<svg xmlns="http://www.w3.org/2000/svg" viewBox="0 0 121.24 120.26"><defs><style>.cls-1{fill:#794a6b;stroke:#794a6b;stroke-miterlimit:10;}.cls-2,.cls-3,.cls-4{fill:none;stroke:#3a2b35;stroke-linejoin:round;stroke-width:3px;}.cls-3,.cls-4{stroke-linecap:round;}.cls-3{stroke-dasharray:0 7.98;}</style></defs><title>implementations</title><g id="Layer_2" data-name="Layer 2"><g id="Icon_Set" data-name="Icon Set"><path class="cls-1" d="M70.11,52.22A19.15,19.15,0,1,0,51,71.36,19.14,19.14,0,0,0,70.11,52.22Z"/><circle class="cls-2" cx="89.58" cy="88.6" r="16.09" transform="translate(-26.55 137.46) rotate(-67.5)"/><path class="cls-2" d="M119.74,90.5V86.7a3.06,3.06,0,0,0-3.06-3.06h0a3,3,0,0,1-2.92-2.17,25,25,0,0,0-2-4.92,3.07,3.07,0,0,1,.53-3.61h0a3.05,3.05,0,0,0,0-4.33l-2.68-2.68a3.07,3.07,0,0,0-4.33,0h0a3,3,0,0,1-3.61.53,25.63,25.63,0,0,0-4.92-2,3,3,0,0,1-2.17-2.92h0a3.06,3.06,0,0,0-3.06-3.06h-3.8a3.06,3.06,0,0,0-3.06,3.06h0a3,3,0,0,1-2.16,2.92,25.11,25.11,0,0,0-4.92,2,3,3,0,0,1-3.61-.53h0a3.07,3.07,0,0,0-4.33,0l-2.69,2.68a3.07,3.07,0,0,0,0,4.33h0a3.07,3.07,0,0,1,.53,3.61,24.42,24.42,0,0,0-2,4.92,3,3,0,0,1-2.93,2.17h0a3.06,3.06,0,0,0-3.06,3.06v3.8a3.06,3.06,0,0,0,3.06,3.06h0a3,3,0,0,1,2.93,2.17,24.42,24.42,0,0,0,2,4.92,3,3,0,0,1-.53,3.6h0a3.06,3.06,0,0,0,0,4.32l2.69,2.69a3.07,3.07,0,0,0,4.33,0h0a3,3,0,0,1,3.61-.53,25.11,25.11,0,0,0,4.92,2,3,3,0,0,1,2.16,2.92h0a3.06,3.06,0,0,0,3.06,3.06h3.8a3.06,3.06,0,0,0,3.06-3.06h0a3,3,0,0,1,2.17-2.92,25.63,25.63,0,0,0,4.92-2,3,3,0,0,1,3.61.53h0a3.07,3.07,0,0,0,4.33,0l2.68-2.69a3,3,0,0,0,0-4.32h0a3,3,0,0,1-.53-3.6,25,25,0,0,0,2-4.92,3,3,0,0,1,2.92-2.17h0A3.06,3.06,0,0,0,119.74,90.5Z"/><path class="cls-3" d="M43.08,23.77A29.67,29.67,0,0,0,23,62.29"/><path class="cls-4" d="M52.44,52.22A1.48,1.48,0,1,1,51,50.74,1.48,1.48,0,0,1,52.44,52.22Z"/><polyline class="cls-4" points="50.97 18.3 50.97 52.35 24.07 72.7"/><line class="cls-4" x1="1.5" y1="50.97" x2="8.19" y2="50.97"/><path class="cls-4" d="M65.22,98.35A49.42,49.42,0,1,1,99.07,62.57"/><line class="cls-4" x1="93.74" y1="50.97" x2="100.44" y2="50.97"/><line class="cls-4" x1="50.97" y1="1.5" x2="50.97" y2="8.19"/><line class="cls-4" x1="50.97" y1="93.74" x2="50.97" y2="100.44"/></g></g></svg>