<svg xmlns="http://www.w3.org/2000/svg" viewBox="0 0 128.57 123.33"><defs><style>.cls-1{fill:#794a6b;}.cls-2{fill:none;stroke:#000;stroke-linecap:round;stroke-linejoin:round;stroke-width:2px;}</style></defs><title>intergration</title><g id="Layer_2" data-name="Layer 2"><g id="Icon_Set" data-name="Icon Set"><path id="_Path_" data-name="&lt;Path&gt;" class="cls-1" d="M30.29,77.75s-14.93,1.37-19.91-9.67a17.12,17.12,0,0,1,13-23.88S20.34,37,26.58,33c0,0,4-2.87,11.58-.63,0,0,2.75-21.47,26.86-25.68,0,0-25.84,8.86-19.81,32.57,0,0-7.82-4.24-12,2.46,0,0-3,5.21.43,8.63a12.29,12.29,0,0,0-11.57,5.26,13.06,13.06,0,0,0-2.22,9.2C20.38,69.22,22.49,75.65,30.29,77.75Z"/><path id="_Path_2" data-name="&lt;Path&gt;" class="cls-2" d="M29.5,25.28A13.63,13.63,0,0,0,15.84,38.45l0,.53-.48.18a22.5,22.5,0,0,0,8.16,43.46h74.4a29.65,29.65,0,1,0,0-59.3h-.55l-.25-.51a33.32,33.32,0,0,0-63.3,2.31l-.21.74-.74-.19A13.54,13.54,0,0,0,29.5,25.28Z"/><line id="_Path_3" data-name="&lt;Path&gt;" class="cls-2" x1="64.29" y1="82.62" x2="64.29" y2="97.57"/><polygon id="_Path_4" data-name="&lt;Path&gt;" class="cls-2" points="70.89 109.13 70.89 97.57 57.68 97.57 57.68 109.13 48.71 109.13 48.71 122.33 57.68 122.33 70.89 122.33 79.86 122.33 79.86 109.13 70.89 109.13"/><line id="_Path_5" data-name="&lt;Path&gt;" class="cls-2" x1="79.86" y1="115.73" x2="115" y2="115.73"/><line id="_Path_6" data-name="&lt;Path&gt;" class="cls-2" x1="13.58" y1="115.73" x2="48.71" y2="115.73"/></g></g></svg>