<svg xmlns="http://www.w3.org/2000/svg" viewBox="0 0 105.33 131"><defs><style>.cls-1,.cls-3{fill:none;}.cls-1,.cls-2,.cls-3{stroke:#3a2b35;stroke-linecap:round;stroke-width:3px;}.cls-1,.cls-2{stroke-linejoin:round;}.cls-2{fill:#794a6b;}.cls-3{stroke-miterlimit:10;}</style></defs><title>managerMan</title><g id="Layer_2" data-name="Layer 2"><g id="Icon_Set" data-name="Icon Set"><polyline class="cls-1" points="61.27 82.37 52.66 88.85 44.05 82.37"/><polyline class="cls-2" points="52.66 129.5 65.05 118.08 57.43 85.81 52.66 88.53 47.9 85.81 40.28 118.08 52.66 129.5"/><path class="cls-3" d="M73.54,116.49l30-6.22-4-19.88a19.57,19.57,0,0,0-6.72-11.22,16,16,0,0,0-6.58-3.45l-17-4.93a3.71,3.71,0,0,1-2.64-3.12L65.9,61a29,29,0,0,0,10-15.65c3-.27,5.36-3.64,5.36-7.89,0-3.93-2-7.11-4.68-7.78"/><path class="cls-3" d="M28.65,29.67c-2.63.75-4.53,3.88-4.53,7.74,0,4.25,2.31,7.62,5.34,7.89A29,29,0,0,0,39.42,61l-.78,6.71A3.65,3.65,0,0,1,37,70.3a3.49,3.49,0,0,1-1,.49L19.08,75.7a15.94,15.94,0,0,0-6.63,3.47A19.53,19.53,0,0,0,5.73,90.39l-4,19.88,26.88,5.57"/><path class="cls-3" d="M76.54,29.63S77.94,1.5,52.66,1.5s-24,28.17-24,28.17"/><path class="cls-3" d="M30.45,17.58a9,9,0,0,1,5-4.33C38.89,12,42.73,13,46,14.51c4.79,2.19,9,4.76,14.35,5.35a24.53,24.53,0,0,0,14.39-2.35"/><polyline class="cls-1" points="66.51 66.09 52.66 78.49 38.82 66.09"/><line class="cls-1" x1="74.78" y1="99.41" x2="90.44" y2="96.46"/></g></g></svg>