<svg xmlns="http://www.w3.org/2000/svg" viewBox="0 0 105.33 131"><defs><style>.cls-1,.cls-2{fill:none;stroke:#344154;stroke-linecap:round;stroke-width:3px;}.cls-1{stroke-linejoin:round;}.cls-2{stroke-miterlimit:10;}</style></defs><title>mss</title><g id="Layer_2" data-name="Layer 2"><g id="Icon_Set" data-name="Icon Set"><polyline class="cls-1" points="61.27 82.05 52.66 88.53 44.05 82.05"/><polyline class="cls-1" points="47.9 85.81 40.28 118.08 52.66 129.5"/><polyline class="cls-1" points="57.43 85.81 65.05 118.08 52.66 129.5"/><path class="cls-2" d="M73.54,116.49l30-6.22-4-19.88a19.59,19.59,0,0,0-6.71-11.23,16,16,0,0,0-6.58-3.45l-17-4.93a3.7,3.7,0,0,1-2.64-3.12l-.78-6.72a29,29,0,0,0,10-15.65c3-.27,5.36-3.64,5.36-7.89,0-3.93-2-7.11-4.68-7.79"/><path class="cls-2" d="M28.65,29.67c-2.63.75-4.53,3.88-4.53,7.74,0,4.25,2.31,7.61,5.34,7.89a29.08,29.08,0,0,0,10,15.65l-.78,6.72A3.69,3.69,0,0,1,36,70.79L19.08,75.7a16,16,0,0,0-6.63,3.47A19.54,19.54,0,0,0,5.73,90.39l-4,19.88,26.87,5.57"/><path class="cls-2" d="M76.54,29.63S77.94,1.5,52.66,1.5s-24,28.17-24,28.17"/><path class="cls-2" d="M30.45,17.58a9,9,0,0,1,5-4.34C38.89,12,42.73,13,46,14.51c4.79,2.19,9,4.76,14.34,5.35a24.58,24.58,0,0,0,14.4-2.35"/><polyline class="cls-1" points="66.51 66.09 52.66 78.49 38.82 66.09"/><line class="cls-1" x1="74.78" y1="99.41" x2="90.44" y2="96.46"/></g></g></svg>