<svg xmlns="http://www.w3.org/2000/svg" viewBox="0 0 130.54 130.38"><defs><style>.cls-1{fill:none;stroke:#3a2b35;stroke-linecap:round;stroke-linejoin:round;stroke-width:3px;}.cls-2{fill:#794a6b;}</style></defs><title>Notes</title><g id="Layer_2" data-name="Layer 2"><g id="Icon_Set" data-name="Icon Set"><polyline class="cls-1" points="128.92 54.27 129.04 119.73 99.98 119.79"/><polyline class="cls-1" points="69.94 119.84 28.4 119.92 28.38 105.93"/><rect class="cls-1" x="14.87" y="14.87" width="100.64" height="100.64" transform="translate(24.06 -17.32) rotate(18.51)"/><path class="cls-1" d="M65.85,12.35a10.65,10.65,0,0,1,9.88-6.72h0A10.65,10.65,0,0,1,86.4,16.26l0,24.45A10.63,10.63,0,0,1,75.81,51.38h0A10.65,10.65,0,0,1,65.14,40.75l0-12.22"/><path class="cls-1" d="M73.12,28.51l0,12.23a2.65,2.65,0,0,0,2.66,2.64"/><line class="cls-1" x1="48.72" y1="58.9" x2="81.6" y2="69.9"/><line class="cls-1" x1="43.88" y1="72.09" x2="76.76" y2="83.09"/><path class="cls-2" d="M13.36,80.24,9,93.05l84,28.29,4.31-12.81C49.61,105.42,13.36,80.24,13.36,80.24Z"/></g></g></svg>