<svg xmlns="http://www.w3.org/2000/svg" viewBox="0 0 130.1 73.41"><defs><style>.cls-1{fill:#e7a614;}.cls-2,.cls-3{fill:none;stroke:#000;stroke-miterlimit:10;stroke-width:3px;}.cls-3{stroke-linecap:round;}</style></defs><title>partnership</title><g id="Layer_2" data-name="Layer 2"><g id="Icon_Set" data-name="Icon Set"><polygon class="cls-1" points="0 0 0 52.62 10.29 56.7 28.74 11.65 0 0"/><polygon class="cls-1" points="130.1 2.85 130.1 55.47 119.81 59.55 101.36 14.5 130.1 2.85"/><path class="cls-2" d="M96.43,39.37c-15,10.05-26.14-6.5-26.14-6.5-5.29-7.24-9.07.24-9.07.24-2.79,6.76-6.8,6.15-9.17,5a2.77,2.77,0,0,1-1.38-3.26l1.79-6.13a9.46,9.46,0,0,1,5.27-6l6.76-3c2.41-1.07,4.64-.82,7.62-.22l17.6,4.17Z"/><path class="cls-2" d="M100.14,48.06,88.55,51.74,81.29,41.62s8.48,3.51,15.14-2.25Z"/><polyline class="cls-2" points="27.25 15.29 40.39 20.82 28.74 48.06 15.88 43.06"/><polyline class="cls-2" points="102.85 18.14 89.71 23.67 101.36 50.91 114.22 45.9"/><path class="cls-3" d="M80.43,41.56l10,12.53a3.54,3.54,0,0,1,.58,3.4h0a4.06,4.06,0,0,1-6.79,1.44L70.49,44.37"/><path class="cls-3" d="M64.42,51.22,76,63.3a6,6,0,0,0,10-2.22l.06-.2"/><path class="cls-3" d="M58.89,56.89,68.44,67.5a6.06,6.06,0,0,0,4.1,2.08c1.81.09,4.09-.59,6-3.73"/><path class="cls-2" d="M59.48,21.92c-8.58-2-19.09-1.09-19.09-1.09"/><path class="cls-2" d="M30.78,43.29A236.87,236.87,0,0,1,58.35,66.51l4.48,4.29a3.9,3.9,0,0,0,6.57-2.08s0-.08,0-.13"/><path class="cls-2" d="M38.36,49l-1.18,1.32a3,3,0,0,0,.34,4.36h0a3.36,3.36,0,0,0,4.65-.37L43.32,53"/><path class="cls-2" d="M49.4,58.19,46.82,61a3.76,3.76,0,0,1-5.23.3h0A3.77,3.77,0,0,1,41.21,56l2.4-2.77"/><path class="cls-2" d="M49.4,58.19,47.73,60a3.73,3.73,0,0,0,.21,5.25h0a3.73,3.73,0,0,0,5.26-.17L55,63.24"/><path class="cls-2" d="M60.06,68.14l-.92.94a3.53,3.53,0,0,1-5,.09h0a3.52,3.52,0,0,1-.13-5l.66-.7"/></g></g></svg>