<svg xmlns="http://www.w3.org/2000/svg" viewBox="0 0 128.85 127.87"><defs><style>.cls-1{fill:none;stroke:#000;stroke-linecap:round;stroke-linejoin:round;stroke-width:2px;}</style></defs><title>pbj</title><g id="Layer_2" data-name="Layer 2"><g id="Icon_Set" data-name="Icon Set"><line class="cls-1" x1="64.52" y1="78.79" x2="50.34" y2="92.97"/><polyline class="cls-1" points="64.52 63.14 64.52 78.79 78.5 92.78"/><path class="cls-1" d="M55.9,26.77,43.47,34.91s-1.73,18.45-1.73,19.62"/><path class="cls-1" d="M55.9,26.77h0l.21,9.2a9.15,9.15,0,0,0,3.29,6.82l5,4.18,5-4.18A9.12,9.12,0,0,0,72.74,36l.21-9.2h0A14.36,14.36,0,0,1,55.9,26.77Z"/><path class="cls-1" d="M87.1,54.53c0-1.17-1.72-19.62-1.72-19.62L73,26.77"/><path class="cls-1" d="M73.47,12.1c0-6.13-4-11.1-9-11.1s-9,5-9,11.1,4,11.11,9,11.11S73.47,18.24,73.47,12.1Z"/><line class="cls-1" x1="64.42" y1="46.97" x2="64.42" y2="54.53"/><path class="cls-1" d="M15.15,99.11,2.72,107.25S1,125.7,1,126.87"/><path class="cls-1" d="M15.15,99.11h0l.21,9.2a9.12,9.12,0,0,0,3.3,6.82l5,4.18,5-4.18A9.15,9.15,0,0,0,32,108.31l.21-9.2h0A14.36,14.36,0,0,1,15.15,99.11Z"/><path class="cls-1" d="M46.36,126.87c0-1.17-1.72-19.62-1.72-19.62L32.2,99.11"/><path class="cls-1" d="M32.72,84.44c0-6.13-4-11.1-9-11.1s-9,5-9,11.1,4,11.11,9,11.11S32.72,90.58,32.72,84.44Z"/><line class="cls-1" x1="23.68" y1="119.31" x2="23.68" y2="126.87"/><path class="cls-1" d="M96.64,99.11l-12.43,8.14s-1.72,18.45-1.72,19.62"/><path class="cls-1" d="M96.64,99.11h0l.21,9.2a9.12,9.12,0,0,0,3.3,6.82l5,4.18,5-4.18a9.15,9.15,0,0,0,3.29-6.82l.21-9.2h0A14.36,14.36,0,0,1,96.64,99.11Z"/><path class="cls-1" d="M127.85,126.87c0-1.17-1.72-19.62-1.72-19.62l-12.44-8.14"/><path class="cls-1" d="M114.21,84.44c0-6.13-4-11.1-9-11.1s-9,5-9,11.1,4,11.11,9,11.11S114.21,90.58,114.21,84.44Z"/><line class="cls-1" x1="105.17" y1="119.31" x2="105.17" y2="126.87"/></g></g></svg>