<svg xmlns="http://www.w3.org/2000/svg" xmlns:xlink="http://www.w3.org/1999/xlink" viewBox="0 0 46.38 47.2"><defs><style>.cls-1{fill:none;}.cls-2{clip-path:url(#clip-path);}</style><clipPath id="clip-path" transform="translate(0 -0.8)"><rect class="cls-1" width="46.8" height="48.96"/></clipPath></defs><title>proximity</title><g id="Layer_2" data-name="Layer 2"><g id="Layer_1-2" data-name="Layer 1"><g class="cls-2"><path d="M7.91,2.17A.8.8,0,0,0,6.79,1a23.22,23.22,0,0,0,0,32.81.77.77,0,0,0,.56.24.76.76,0,0,0,.56-.24.79.79,0,0,0,0-1.13,21.62,21.62,0,0,1,0-30.54Z" transform="translate(0 -0.8)"/></g><path d="M39.59,1a.8.8,0,0,0-1.13,0,.81.81,0,0,0,0,1.14,21.61,21.61,0,0,1,0,30.54A.81.81,0,0,0,39,34.08a.77.77,0,0,0,.56-.24A23.21,23.21,0,0,0,39.59,1Z" transform="translate(0 -0.8)"/><path d="M11.31,5.56a.79.79,0,0,0,0-1.13.8.8,0,0,0-1.13,0,18.41,18.41,0,0,0,0,26,.83.83,0,0,0,.57.23.8.8,0,0,0,.56-.23.79.79,0,0,0,0-1.13,16.82,16.82,0,0,1,0-23.76Z" transform="translate(0 -0.8)"/><path d="M36.2,4.43a.8.8,0,0,0-1.13,1.13,16.82,16.82,0,0,1,0,23.76.8.8,0,0,0,0,1.13.81.81,0,0,0,1.13,0,18.41,18.41,0,0,0,0-26Z" transform="translate(0 -0.8)"/><path d="M14.7,7.82a.8.8,0,0,0-1.13,0,13.62,13.62,0,0,0,0,19.24.83.83,0,0,0,.57.23.8.8,0,0,0,.56-.23.79.79,0,0,0,0-1.13,12,12,0,0,1,0-17,.8.8,0,0,0,0-1.14Z" transform="translate(0 -0.8)"/><path d="M32.81,7.82a.8.8,0,0,0-1.13,0,.79.79,0,0,0,0,1.13,12,12,0,0,1,0,17,.8.8,0,0,0,.56,1.36.8.8,0,0,0,.57-.24,13.6,13.6,0,0,0,0-19.23Z" transform="translate(0 -0.8)"/><path d="M23.19,12a5.6,5.6,0,0,0-.8,11.14V47.2a.8.8,0,1,0,1.6,0V23.14A5.6,5.6,0,0,0,23.19,12Zm0,9.6a4,4,0,1,1,4-4,4,4,0,0,1-4,4Z" transform="translate(0 -0.8)"/></g></g></svg>