<svg xmlns="http://www.w3.org/2000/svg" viewBox="0 0 112.06 130.26"><defs><style>.cls-1,.cls-2,.cls-3{fill:none;stroke:#344154;stroke-width:3px;}.cls-1,.cls-3{stroke-miterlimit:10;}.cls-2{stroke-linejoin:round;}.cls-3{stroke-linecap:round;}</style></defs><title>reporting</title><g id="Layer_2" data-name="Layer 2"><g id="Icon_Set" data-name="Icon Set"><circle class="cls-1" cx="56.03" cy="37.51" r="36.01"/><polyline class="cls-1" points="50.78 73.52 50.78 86.6 61.28 86.6 61.28 73.52"/><rect class="cls-2" x="34.54" y="31.11" width="14.33" height="19.35"/><rect class="cls-2" x="48.87" y="21.26" width="14.33" height="29.2"/><rect class="cls-2" x="63.19" y="31.11" width="14.33" height="19.35"/><line class="cls-3" x1="15.41" y1="99.92" x2="8.88" y2="106.8"/><line class="cls-3" x1="27.95" y1="106.81" x2="21.42" y2="99.93"/><line class="cls-3" x1="40.92" y1="99.46" x2="33.96" y2="106.8"/><circle class="cls-3" cx="5.87" cy="109.97" r="4.37"/><circle class="cls-3" cx="18.42" cy="96.75" r="4.37"/><circle class="cls-3" cx="30.96" cy="109.97" r="4.37"/><path class="cls-3" d="M65.22,115.07V90a3.35,3.35,0,0,0-3.35-3.35H50.19A3.35,3.35,0,0,0,46.84,90v25.11"/><path class="cls-3" d="M46.84,115.07v10.34a3.35,3.35,0,0,0,3.35,3.35H61.87a3.35,3.35,0,0,0,3.35-3.35V115.07"/><line class="cls-3" x1="96.65" y1="99.92" x2="103.18" y2="106.8"/><line class="cls-3" x1="84.11" y1="106.81" x2="90.64" y2="99.93"/><line class="cls-3" x1="71.14" y1="99.46" x2="78.1" y2="106.8"/><circle class="cls-3" cx="106.19" cy="109.97" r="4.37"/><circle class="cls-3" cx="93.64" cy="96.75" r="4.37"/><circle class="cls-3" cx="81.1" cy="109.97" r="4.37"/></g></g></svg>