<svg xmlns="http://www.w3.org/2000/svg" viewBox="0 0 107.97 131.85"><defs><style>.cls-1{fill:#794a6b;}.cls-2,.cls-3{fill:none;stroke:#000;stroke-miterlimit:10;stroke-width:3px;}.cls-3{stroke-linecap:round;}</style></defs><title>research</title><g id="Layer_2" data-name="Layer 2"><g id="Icon_Set" data-name="Icon Set"><rect class="cls-1" x="12.45" y="87.69" width="22.75" height="6.81"/><polyline class="cls-2" points="62.35 113.28 1.5 113.28 1.5 1.5 82.84 1.5 82.84 50.2"/><rect class="cls-2" x="12.45" y="12.45" width="37.75" height="37.75"/><line class="cls-2" x1="12.45" y1="66.74" x2="50.23" y2="66.74"/><line class="cls-2" x1="12.45" y1="78.4" x2="50.23" y2="78.4"/><path class="cls-1" d="M20.26,42.39H42.39V20.26S35.61,36,20.26,42.39Z"/><circle class="cls-2" cx="82.84" cy="78.16" r="23.62" transform="translate(-23.61 37.65) rotate(-22.5)"/><path class="cls-3" d="M82.84,62.74A15.44,15.44,0,0,1,98.27,78.16"/><path class="cls-2" d="M78,106.48v19a4.85,4.85,0,0,0,4.85,4.85h0a4.85,4.85,0,0,0,4.85-4.85v-19"/></g></g></svg>