<svg xmlns="http://www.w3.org/2000/svg" viewBox="0 0 127.82 127.82"><defs><style>.cls-1{fill:none;stroke:#3a2b35;stroke-linecap:round;stroke-linejoin:round;stroke-width:3px;}.cls-2{fill:#794a6b;}</style></defs><title>send</title><g id="Layer_2" data-name="Layer 2"><g id="Icon_Set" data-name="Icon Set"><path class="cls-1" d="M126.05,1.77a.91.91,0,0,0-1-.2l-123,52a.91.91,0,0,0,0,1.67l38.16,18a.91.91,0,0,0,.74,0l23.57-10-10,23.56a.91.91,0,0,0,0,.74l18,38.17a.9.9,0,0,0,.82.52h0a.9.9,0,0,0,.82-.56l52-123A.91.91,0,0,0,126.05,1.77Z"/><polygon class="cls-2" points="91.06 36.77 72.21 80.99 69.41 66.77 75.53 52.29 61.06 58.4 46.26 55.77 91.06 36.77"/></g></g></svg>