<svg xmlns="http://www.w3.org/2000/svg" viewBox="0 0 127.22 129.06"><defs><style>.cls-1{fill:none;}.cls-1,.cls-2{stroke:#3a2b35;stroke-linecap:round;stroke-linejoin:round;stroke-width:3px;}.cls-2{fill:#794a6b;}</style></defs><title>supportHeadset</title><g id="Layer_2" data-name="Layer 2"><g id="Icon_Set" data-name="Icon Set"><path class="cls-1" d="M11.56,57.69h11a0,0,0,0,1,0,0v36.9a0,0,0,0,1,0,0h-11A10.06,10.06,0,0,1,1.5,84.52V67.75A10.06,10.06,0,0,1,11.56,57.69Z"/><path class="cls-2" d="M27.94,99.94h0a5.4,5.4,0,0,1-5.4-5.4V57.74a5.4,5.4,0,0,1,5.4-5.4h0a5.4,5.4,0,0,1,5.4,5.4v36.8A5.4,5.4,0,0,1,27.94,99.94Z"/><path class="cls-1" d="M114.73,57.69h11a0,0,0,0,1,0,0v36.9a0,0,0,0,1,0,0h-11a10.06,10.06,0,0,1-10.06-10.06V67.75A10.06,10.06,0,0,1,114.73,57.69Z" transform="translate(230.39 152.28) rotate(180)"/><path class="cls-2" d="M99.27,99.94h0a5.4,5.4,0,0,0,5.4-5.4V57.74a5.4,5.4,0,0,0-5.4-5.4h0a5.39,5.39,0,0,0-5.39,5.4v36.8A5.39,5.39,0,0,0,99.27,99.94Z"/><path class="cls-1" d="M114.56,51.74a50.25,50.25,0,0,0-100.49,0"/><path class="cls-1" d="M114.56,100.19h0a21.18,21.18,0,0,1-21.18,21.18H79.94"/><path class="cls-1" d="M73.74,115.17H64.31a6.2,6.2,0,0,0-6.19,6.2h0a6.19,6.19,0,0,0,6.19,6.19h9.43a6.2,6.2,0,0,0,6.2-6.19h0A6.21,6.21,0,0,0,73.74,115.17Z"/></g></g></svg>