<svg xmlns="http://www.w3.org/2000/svg" viewBox="0 0 61.1 98.28"><defs><style>.cls-1,.cls-3{fill:none;}.cls-1,.cls-2,.cls-3{stroke:#3a2b35;stroke-linecap:round;stroke-width:3px;}.cls-1,.cls-2{stroke-linejoin:round;}.cls-2{fill:#fff;}.cls-3{stroke-miterlimit:10;}</style></defs><title>touch</title><g id="Layer_2" data-name="Layer 2"><g id="Icon_Set" data-name="Icon Set"><path class="cls-1" d="M27.86,43.22V31.87h5.29c2.92,0,5.29,2,5.29,4.44"/><path class="cls-1" d="M59.56,52.22a75.92,75.92,0,0,1-5,24.81,38,38,0,0,0-1.47,4.63H30.37"/><path class="cls-1" d="M27.86,31.87V20.05c0-2.45-2.37-4.45-5.29-4.45h0c-2.93,0-5.29,2-5.29,4.45V53l-3.65-8a6.34,6.34,0,0,0-5.86-3.38h0C4.31,41.62,1.5,44,1.5,46.89h0A26,26,0,0,0,6.43,62.06a34.62,34.62,0,0,0,4.5,5.22,30.53,30.53,0,0,1,8.23,14.38"/><path class="cls-1" d="M38.44,46.54V35.19h5.29c2.92,0,5.29,2,5.29,4.44V50.4"/><path class="cls-1" d="M49,40.87h5.29c2.92,0,5.29,2,5.29,4.44v6.91"/><rect class="cls-2" x="15" y="87.64" width="41.02" height="9.14"/><line class="cls-3" x1="21.63" y1="9.55" x2="21.61" y2="1.5"/><line class="cls-3" x1="33.54" y1="18.46" x2="43.12" y2="18.45"/><line class="cls-3" x1="2.01" y1="17.98" x2="11.58" y2="17.96"/><line class="cls-3" x1="14.64" y1="11.94" x2="7.87" y2="6.25"/><line class="cls-3" x1="28.82" y1="11.94" x2="35.59" y2="6.25"/></g></g></svg>