<svg xmlns="http://www.w3.org/2000/svg" viewBox="0 0 39.28 31.91"><defs><style>.cls-1{fill:#010002;}</style></defs><title>twitter</title><g id="Layer_2" data-name="Layer 2"><g id="Layer_1-2" data-name="Layer 1"><path class="cls-1" d="M39.28,3.77A15.73,15.73,0,0,1,34.65,5,8,8,0,0,0,38.19.59a16.44,16.44,0,0,1-5.12,2A8.06,8.06,0,0,0,19.13,8.06a8.48,8.48,0,0,0,.21,1.83A22.83,22.83,0,0,1,2.74,1.47,7.94,7.94,0,0,0,1.65,5.52a8.06,8.06,0,0,0,3.58,6.71,8.19,8.19,0,0,1-3.65-1v.1A8.07,8.07,0,0,0,8,19.22a8.16,8.16,0,0,1-2.12.28,7.68,7.68,0,0,1-1.52-.15A8.08,8.08,0,0,0,11.93,25a16.17,16.17,0,0,1-10,3.44A17.37,17.37,0,0,1,0,28.28a22.79,22.79,0,0,0,12.35,3.63C27.17,31.91,35.28,19.63,35.28,9l0-1A16.14,16.14,0,0,0,39.28,3.77Z"/></g></g></svg>