<svg xmlns="http://www.w3.org/2000/svg" viewBox="0 0 150.39 128.8"><defs><style>.cls-1,.cls-2,.cls-3,.cls-4{fill:none;stroke:#3a2b35;stroke-width:3px;}.cls-1,.cls-2{stroke-linejoin:round;}.cls-2,.cls-4{stroke-linecap:round;}.cls-3,.cls-4{stroke-miterlimit:10;}</style></defs><title>video</title><g id="Layer_2" data-name="Layer 2"><g id="Icon_Set" data-name="Icon Set"><circle class="cls-1" cx="119.88" cy="98.28" r="15.48" transform="translate(-33.77 77.7) rotate(-31.72)"/><path class="cls-1" d="M148.89,100.11V96.46A3,3,0,0,0,146,93.51h0a2.91,2.91,0,0,1-2.81-2.08,23.81,23.81,0,0,0-2-4.74,2.94,2.94,0,0,1,.51-3.47h0a2.94,2.94,0,0,0,0-4.16l-2.59-2.58a2.94,2.94,0,0,0-4.16,0h0a2.93,2.93,0,0,1-3.47.51,23.78,23.78,0,0,0-4.74-2,2.93,2.93,0,0,1-2.08-2.82h0a2.94,2.94,0,0,0-2.94-2.94h-3.66a2.94,2.94,0,0,0-2.94,2.94h0A2.93,2.93,0,0,1,113,75a23.94,23.94,0,0,0-4.73,2,2.93,2.93,0,0,1-3.47-.51h0a2.94,2.94,0,0,0-4.16,0l-2.59,2.58a2.94,2.94,0,0,0,0,4.16h0a2.91,2.91,0,0,1,.51,3.47,24.38,24.38,0,0,0-2,4.74,2.92,2.92,0,0,1-2.81,2.08h0a2.94,2.94,0,0,0-2.94,2.95v3.65a2.93,2.93,0,0,0,2.94,2.94h0a2.93,2.93,0,0,1,2.81,2.09,24.29,24.29,0,0,0,2,4.73,2.91,2.91,0,0,1-.51,3.47h0a3,3,0,0,0,0,4.17l2.59,2.58a2.94,2.94,0,0,0,4.16,0h0a2.93,2.93,0,0,1,3.47-.51,24.55,24.55,0,0,0,4.73,2,2.92,2.92,0,0,1,2.09,2.81h0a3,3,0,0,0,2.94,3h3.66a3,3,0,0,0,2.94-3h0a2.93,2.93,0,0,1,2.08-2.81,24.38,24.38,0,0,0,4.74-2,2.93,2.93,0,0,1,3.47.51h0a2.94,2.94,0,0,0,4.16,0l2.59-2.58a3,3,0,0,0,0-4.17h0a2.94,2.94,0,0,1-.51-3.47,23.72,23.72,0,0,0,2-4.73,2.92,2.92,0,0,1,2.81-2.09h0A2.94,2.94,0,0,0,148.89,100.11Z"/><path class="cls-2" d="M83.13,98.28H3.7a2.19,2.19,0,0,1-2.2-2.2V3.7A2.19,2.19,0,0,1,3.7,1.5h114a2.2,2.2,0,0,1,2.2,2.2V61.89"/><path class="cls-3" d="M19.72,14.29a3.43,3.43,0,1,0-3.42,3.42A3.43,3.43,0,0,0,19.72,14.29Z"/><path class="cls-3" d="M34.8,14.29a3.43,3.43,0,1,0-3.43,3.42A3.43,3.43,0,0,0,34.8,14.29Z"/><path class="cls-3" d="M49.88,14.29a3.43,3.43,0,1,0-3.43,3.42A3.44,3.44,0,0,0,49.88,14.29Z"/><line class="cls-3" x1="1.5" y1="27.33" x2="119.88" y2="27.33"/><line class="cls-4" x1="61.3" y1="14.41" x2="108.46" y2="14.41"/><line class="cls-2" x1="12.87" y1="85.43" x2="12.87" y2="90.31"/><line class="cls-2" x1="18.8" y1="85.43" x2="18.8" y2="90.31"/><line class="cls-2" x1="27.1" y1="87.87" x2="83.12" y2="87.87"/><polygon class="cls-1" points="78.37 58.34 56.32 44.5 56.32 72.17 78.37 58.34"/></g></g></svg>