<svg xmlns="http://www.w3.org/2000/svg" viewBox="0 0 710.08 312.61"><defs><style>.cls-1{fill:#b42e34;}.cls-2{fill:#fff;}.cls-3{fill:#576423;}.cls-4{fill:#e7a614;}.cls-5{fill:#79496a;}</style></defs><title>AOD_Color_WhiteText</title><g id="Layer_2" data-name="Layer 2"><g id="Layer_1-2" data-name="Layer 1"><path class="cls-1" d="M201.59,312.61c-15.24,0-20.81-8.67-20.81-17.48,0-16.32,9.33-27,27.39-27,15.23,0,20.79,8.69,20.79,17.55C229,302,219.65,312.61,201.59,312.61Zm5.77-36c-9.67,0-13.69,10.29-13.69,17.55,0,5.42,2.21,9.91,8.72,9.91,9.67,0,13.69-10.27,13.69-17.48C216.08,281.21,213.87,276.65,207.36,276.65Z"/><path class="cls-1" d="M250.17,268.9h15.65l9.59,29.8h.14l6.58-29.8h11.8l-9.93,43H268.44l-9.81-29.74h-.14L252,311.87H240.17Z"/><path class="cls-1" d="M360.38,268.9h16.25c14.89,0,23.89,5.79,23.89,17.24,0,18-12.28,25.73-29.87,25.73H350.44Zm4.71,34.47h5.49c12.28,0,17.05-8.43,17.05-16.43s-5.91-9.55-13.55-9.55H371Z"/><path class="cls-1" d="M421.3,268.9h32.95L452.44,277h-20.6l-2.16,8.87h19.53L447.27,294H427.81l-2.29,9.72h21.41l-1.81,8.13h-33.9Z"/><path class="cls-1" d="M473.33,268.9h19.6l.73,28.87h.14l14.69-28.87h20l-9.94,43H506.35l8.52-35.22h-.13l-18.39,35.22H484.54l-1.74-35.22h-.14l-8.12,35.22H463.13Z"/><path class="cls-1" d="M559.82,268.9h15.7l7.66,43H570.56l-1.28-9.17H551.09l-5.57,9.17H532Zm6.24,8.86h-.14L556,294.57h12.07Z"/><path class="cls-1" d="M606.43,268.9h15.64l9.6,29.8h.13l6.58-29.8h11.81l-9.93,43H624.69l-9.79-29.74h-.15l-6.5,29.74H596.43Z"/><path class="cls-1" d="M668.71,268.9H685c14.89,0,23.89,5.79,23.89,17.24,0,18-12.28,25.73-29.86,25.73H658.78Zm4.7,34.47h5.51c12.28,0,17-8.43,17-16.43s-5.91-9.55-13.56-9.55h-3.09Z"/><path class="cls-2" d="M8.39,167.87a45.53,45.53,0,0,1,24.31-7.24c21.13,0,29.67,10.85,29.67,31.8v31.81a126.89,126.89,0,0,0,.57,15.06H50.21v-9.94h-.29a27.08,27.08,0,0,1-22.87,11.76c-15.91,0-27-7.24-27-24,0-19.29,20.26-25.32,34.29-25.32,5.36,0,9.12,0,14.47.3,0-13.27-4.62-20-18.23-20a33.83,33.83,0,0,0-21.41,7.84Zm40.37,34.81c-2.89,0-5.78-.3-8.68-.3-7.38,0-25.61,1.2-25.61,14.77,0,8.14,7.52,12.51,13.74,12.51,13.46,0,20.55-8.74,20.55-20.19Z"/><path class="cls-2" d="M126,173.9H99.28v42c0,8.9,5.21,13.72,11.43,13.72A16.35,16.35,0,0,0,120,227V239a41.22,41.22,0,0,1-11.58,2.11c-14,0-22.71-6.94-22.71-22.31V173.9H69V162.44H85.68V144.65l13.6-4.52v22.31H126Z"/><path class="cls-2" d="M170.77,173.9H151.24v42c0,8.9,5.2,13.72,11.43,13.72a16.4,16.4,0,0,0,9.26-2.71V239a41.36,41.36,0,0,1-11.58,2.11c-14,0-22.72-6.94-22.72-22.31V173.9H121V162.44h16.64V144.65l13.61-4.52v22.31h19.53Z"/><path class="cls-2" d="M240.8,236.14c-5.2,2-11.14,5-23.3,5-26.19,0-38.19-16.59-38.19-41.61,0-22.75,13.74-38.88,34.58-38.88,24.59,0,32.55,18.69,32.55,43.41H193.77c0,15.22,11.44,25.62,24.31,25.62,9,0,19.4-4.82,22.72-7.69ZM232,193.48c0-11.75-6.66-21.4-18.37-21.4-13.32,0-18.81,11.46-19.83,21.4Z"/><path class="cls-2" d="M259.62,162.44h13.16v12.21h.3c4.05-8.75,13.89-14,24.16-14,19.11,0,27.64,12.36,27.64,33V239.3h-13.6V199.51c0-17.93-3.76-26.67-15.63-27.43-15.48,0-22.42,13-22.42,31.66V239.3H259.62Z"/><path class="cls-2" d="M393.06,228.46h-.29c-3.61,5.72-12,12.66-25.18,12.66-22.27,0-31.68-20.65-31.68-41.61,0-20.65,10.42-38.88,31.83-38.88,12.88,0,20.26,5.27,24.46,12.36h.28V126.26h13.6v113h-13Zm-22.28,1.2c15.34,0,21.7-15.82,21.7-28.64,0-14.31-7.08-28.94-21.84-28.94s-20.55,14.47-20.26,28.49C350.09,212.63,356.17,229.66,370.78,229.66Z"/><path class="cls-2" d="M429.09,167.87a45.53,45.53,0,0,1,24.31-7.24c21.12,0,29.66,10.85,29.66,31.8v31.81a125.89,125.89,0,0,0,.58,15.06H470.91v-9.94h-.29a27.11,27.11,0,0,1-22.87,11.76c-15.91,0-27.05-7.24-27.05-24,0-19.29,20.25-25.32,34.29-25.32,5.35,0,9.11,0,14.47.3,0-13.27-4.63-20-18.24-20a33.83,33.83,0,0,0-21.41,7.84Zm40.37,34.81c-2.9,0-5.79-.3-8.68-.3-7.38,0-25.62,1.2-25.62,14.77,0,8.14,7.53,12.51,13.75,12.51,13.45,0,20.55-8.74,20.55-20.19Z"/><path class="cls-2" d="M500.3,162.44h13.17v12.21h.29c4-8.75,13.89-14,24.16-14,19.1,0,27.64,12.36,27.64,33V239.3H552V199.51c0-17.93-3.76-26.67-15.63-27.43-15.48,0-22.43,13-22.43,31.66V239.3H500.3Z"/><path class="cls-2" d="M632,175.4a38.09,38.09,0,0,0-14.76-3.32c-15.19,0-23.74,14.17-23.74,28.79,0,13.72,7.1,28.79,24.61,28.79a27.48,27.48,0,0,0,14.61-4.37l1,12.66c-5.65,2.71-12.16,3.17-17.08,3.17-22.28,0-37.62-18.24-37.62-40.25,0-23.36,15-40.24,37.62-40.24a49,49,0,0,1,16.49,3Z"/><path class="cls-2" d="M704.44,236.14c-5.22,2-11.15,5-23.3,5-26.19,0-38.21-16.59-38.21-41.61,0-22.75,13.75-38.88,34.59-38.88,24.6,0,32.56,18.69,32.56,43.41H657.4c0,15.22,11.43,25.62,24.32,25.62,9,0,19.38-4.82,22.72-7.69Zm-8.84-42.66c0-11.75-6.65-21.4-18.37-21.4-13.31,0-18.81,11.46-19.83,21.4Z"/><path class="cls-2" d="M319.23,0A61.87,61.87,0,0,0,263.4,35a48.82,48.82,0,0,0-19.95-4.28c-1.11,0-2.19.09-3.28.16a43.07,43.07,0,0,0-82.82,16.18A42.74,42.74,0,0,0,195.78,89.4a48.9,48.9,0,0,0,85.44,20.28,61.9,61.9,0,0,0,38,13c34.17,0,61.88-27.46,61.88-61.33S353.4,0,319.23,0Z"/><path class="cls-3" d="M166.41,47.07A34,34,0,0,1,230.9,32.4a48.46,48.46,0,0,0-36.26,46.72c0,.36.05.71.06,1.07A33.75,33.75,0,0,1,166.41,47.07Z"/><path class="cls-4" d="M243.45,118.52a39.41,39.41,0,1,1,16.6-75.14,60.87,60.87,0,0,0,14.43,60.26A39.79,39.79,0,0,1,243.45,118.52Z"/><path class="cls-5" d="M319.23,113.7c-29.13,0-52.83-23.49-52.83-52.35S290.1,9,319.23,9s52.82,23.49,52.82,52.37S348.35,113.7,319.23,113.7Z"/></g></g></svg>