<svg xmlns="http://www.w3.org/2000/svg" viewBox="0 0 682.58 129.87"><defs><style>.cls-1{fill:#221f1f;}.cls-2{fill:#a12b2f;}.cls-3{fill:#fff;}.cls-4{fill:#5f6638;}.cls-5{fill:#cf8a00;}.cls-6{fill:#6c3b5d;}</style></defs><title>AOD_Horizontal_Color_BlackText</title><g id="Layer_2" data-name="Layer 2"><g id="Layer_1-2" data-name="Layer 1"><path class="cls-1" d="M672.2,22.45a10.38,10.38,0,1,1-10.38,10.39A10.39,10.39,0,0,1,672.2,22.45Zm0,19.21c4.77,0,8.36-3.86,8.36-8.82S677,24,672.23,24s-8.43,3.86-8.43,8.84A8.47,8.47,0,0,0,672.23,41.66Zm-4-14.93h4.66c2.79,0,4.17,1.13,4.17,3.43a3.11,3.11,0,0,1-3.13,3.37l3.45,5.37h-2.1l-3.4-5.37h-1.66V38.9h-2Zm2,5.23h2.35c1.52,0,2.51-.31,2.51-1.89,0-1.38-1.24-1.78-2.51-1.78h-2.35Z"/><path class="cls-2" d="M300.68,129.87c-10.62,0-14.5-6.05-14.5-12.19,0-11.36,6.5-18.79,19.08-18.79,10.62,0,14.5,6,14.5,12.23C319.76,122.45,313.26,129.87,300.68,129.87Zm4-25.06c-6.74,0-9.54,7.17-9.54,12.23,0,3.78,1.54,6.91,6.08,6.91,6.73,0,9.54-7.16,9.54-12.19C310.78,108,309.23,104.81,304.7,104.81Z"/><path class="cls-2" d="M334.54,99.41h10.9l6.68,20.76h.1l4.59-20.76H365l-6.93,30H347.27l-6.84-20.73h-.09l-4.54,20.73h-8.23Z"/><path class="cls-2" d="M411.34,99.41h11.33c10.38,0,16.65,4,16.65,12,0,12.53-8.56,17.94-20.82,17.94H404.42Zm3.28,24h3.83c8.56,0,11.88-5.88,11.88-11.45s-4.11-6.65-9.44-6.65h-2.15Z"/><path class="cls-2" d="M453.8,99.41h23l-1.26,5.66H461.14l-1.5,6.18h13.61l-1.35,5.66H458.33l-1.59,6.78h14.92l-1.26,5.67H446.78Z"/><path class="cls-2" d="M490.06,99.41h13.66l.51,20.12h.1l10.24-20.12h13.94l-6.93,30h-8.51L519,104.81h-.09L506.1,129.36h-8.23l-1.21-24.55h-.09l-5.67,24.55H483Z"/><path class="cls-2" d="M550.34,99.41h10.94l5.34,30h-8.8l-.89-6.4H544.25l-3.88,6.4h-9.44Zm4.35,6.17h-.1l-6.92,11.72h8.42Z"/><path class="cls-2" d="M582.82,99.41h10.9l6.69,20.76h.09l4.59-20.76h8.23l-6.92,30H595.55l-6.83-20.73h-.1l-4.53,20.73h-8.24Z"/><path class="cls-2" d="M626.22,99.41h11.33c10.38,0,16.65,4,16.65,12,0,12.53-8.56,17.94-20.81,17.94H619.31Zm3.28,24h3.84c8.56,0,11.88-5.88,11.88-11.45s-4.12-6.65-9.45-6.65h-2.15Z"/><path class="cls-1" d="M166,29A31.75,31.75,0,0,1,183,24c14.73,0,20.68,7.56,20.68,22.17V68.28a88.79,88.79,0,0,0,.4,10.5h-8.87V71.85H195A18.88,18.88,0,0,1,179,80c-11.09,0-18.85-5-18.85-16.7,0-13.44,14.11-17.64,23.9-17.64,3.73,0,6.35,0,10.08.21,0-9.25-3.22-14-12.71-14a23.59,23.59,0,0,0-14.92,5.47Zm28.13,24.27c-2,0-4-.21-6-.21-5.15,0-17.85.84-17.85,10.29,0,5.68,5.24,8.72,9.58,8.72,9.38,0,14.32-6.09,14.32-14.07Z"/><path class="cls-1" d="M248,33.2H229.38V62.5c0,6.2,3.63,9.56,8,9.56a11.41,11.41,0,0,0,6.45-1.89v8.4A28.3,28.3,0,0,1,235.73,80C226,80,219.9,75.21,219.9,64.5V33.2H208.3v-8h11.6V12.82l9.48-3.16V25.21H248Z"/><path class="cls-1" d="M279.2,33.2H265.59V62.5c0,6.2,3.62,9.56,8,9.56A11.45,11.45,0,0,0,280,70.17v8.4A28.37,28.37,0,0,1,271.94,80c-9.78,0-15.83-4.83-15.83-15.54V33.2H244.5v-8h11.61V12.82l9.48-3.16V25.21H279.2Z"/><path class="cls-1" d="M328,76.58c-3.63,1.36-7.77,3.46-16.24,3.46-18.25,0-26.62-11.55-26.62-29,0-15.86,9.58-27.1,24.1-27.1,17.14,0,22.69,13,22.69,30.25H295.23c0,10.61,8,17.86,16.94,17.86,6.26,0,13.52-3.36,15.84-5.36Zm-6.16-29.73c0-8.19-4.64-14.92-12.8-14.92-9.28,0-13.11,8-13.82,14.92Z"/><path class="cls-1" d="M341.12,25.21h9.18v8.51h.2c2.82-6.09,9.68-9.77,16.84-9.77,13.31,0,19.26,8.61,19.26,23V78.78h-9.48V51.05c0-12.5-2.62-18.59-10.89-19.12-10.79,0-15.62,9-15.62,22.07V78.78h-9.49Z"/><path class="cls-1" d="M434.12,71.22h-.2c-2.52,4-8.37,8.82-17.55,8.82-15.53,0-22.08-14.39-22.08-29,0-14.39,7.26-27.1,22.18-27.1,9,0,14.12,3.68,17,8.61h.2V0h9.47V78.78h-9.07Zm-15.53.84c10.69,0,15.13-11,15.13-20,0-10-4.94-20.17-15.23-20.17S404.17,42,404.38,51.79C404.17,60.19,408.41,72.06,418.59,72.06Z"/><path class="cls-1" d="M459.23,29a31.78,31.78,0,0,1,16.94-5c14.72,0,20.67,7.56,20.67,22.17V68.28a87.79,87.79,0,0,0,.41,10.5h-8.88V71.85h-.2A18.89,18.89,0,0,1,472.24,80c-11.1,0-18.86-5-18.86-16.7,0-13.44,14.12-17.64,23.9-17.64,3.73,0,6.35,0,10.08.21,0-9.25-3.22-14-12.71-14a23.59,23.59,0,0,0-14.92,5.47Zm28.13,24.27c-2,0-4-.21-6.05-.21-5.14,0-17.85.84-17.85,10.29,0,5.68,5.25,8.72,9.58,8.72,9.38,0,14.32-6.09,14.32-14.07Z"/><path class="cls-1" d="M508.86,25.21H518v8.51h.19c2.83-6.09,9.69-9.77,16.85-9.77,13.31,0,19.26,8.61,19.26,23V78.78h-9.48V51.05c0-12.5-2.62-18.59-10.89-19.12-10.79,0-15.64,9-15.64,22.07V78.78h-9.47Z"/><path class="cls-1" d="M600.62,34.24a26.61,26.61,0,0,0-10.28-2.31c-10.59,0-16.55,9.88-16.55,20.07,0,9.56,5,20.06,17.15,20.06a19.22,19.22,0,0,0,10.18-3l.71,8.82c-3.93,1.89-8.47,2.2-11.9,2.2-15.53,0-26.22-12.71-26.22-28,0-16.28,10.49-28,26.22-28a34.17,34.17,0,0,1,11.5,2.1Z"/><path class="cls-1" d="M651.12,76.58c-3.63,1.36-7.77,3.46-16.23,3.46-18.26,0-26.63-11.55-26.63-29,0-15.86,9.58-27.1,24.1-27.1,17.15,0,22.69,13,22.69,30.25H618.34c0,10.61,8,17.86,16.95,17.86,6.25,0,13.51-3.36,15.83-5.36ZM645,46.85c0-8.19-4.64-14.92-12.81-14.92-9.27,0-13.11,8-13.82,14.92Z"/><path class="cls-3" d="M112.82,7.57A43.14,43.14,0,0,0,73.9,32,34.07,34.07,0,0,0,60,29c-.77,0-1.52.07-2.29.12A29.91,29.91,0,1,0,26.78,69.87,34.08,34.08,0,0,0,86.33,84a43.16,43.16,0,0,0,69.61-33.69A42.94,42.94,0,0,0,112.82,7.57Z"/><path class="cls-4" d="M6.31,40.37A23.68,23.68,0,0,1,51.25,30.15,33.76,33.76,0,0,0,26,62.71c0,.25,0,.5,0,.75A23.53,23.53,0,0,1,6.31,40.37Z"/><path class="cls-5" d="M60,90.17A27.47,27.47,0,1,1,71.58,37.8a42.38,42.38,0,0,0,10,42A27.73,27.73,0,0,1,60,90.17Z"/><path class="cls-6" d="M112.82,86.81a36.49,36.49,0,1,1,36.81-36.49A36.7,36.7,0,0,1,112.82,86.81Z"/></g></g></svg>