<svg xmlns="http://www.w3.org/2000/svg" viewBox="0 0 759.12 328.51"><defs><style>.cls-1{fill:#fff;}</style></defs><title>AOD_outline_white</title><g id="Layer_2" data-name="Layer 2"><g id="Layer_1-2" data-name="Layer 1"><path class="cls-1" d="M744,160.48A15.09,15.09,0,1,1,729,175.58,15.1,15.1,0,0,1,744,160.48Zm0,27.92c6.93,0,12.16-5.6,12.16-12.82s-5.23-12.84-12.16-12.84-12.25,5.6-12.25,12.84S737.05,188.4,744.08,188.4Zm-5.81-21.69H745c4.05,0,6.06,1.63,6.06,5,0,2.84-1.8,4.9-4.55,4.9l5,7.8h-3l-4.93-7.8h-2.42v7.8h-2.89Zm2.89,7.6h3.41c2.22,0,3.64-.45,3.64-2.75,0-2-1.79-2.59-3.64-2.59h-3.41Z"/><path class="cls-1" d="M8.5,170a46.11,46.11,0,0,1,24.61-7.33c21.4,0,30.05,11,30.05,32.21v32.2a129.19,129.19,0,0,0,.58,15.26H50.85V232.27h-.3A27.4,27.4,0,0,1,27.4,244.18c-16.12,0-27.4-7.32-27.4-24.27,0-19.53,20.51-25.64,34.73-25.64,5.42,0,9.23,0,14.65.3,0-13.44-4.68-20.3-18.46-20.3a34.28,34.28,0,0,0-21.69,7.94Zm40.88,35.26c-2.93,0-5.86-.31-8.79-.31-7.48,0-25.94,1.22-25.94,15,0,8.25,7.62,12.67,13.92,12.67,13.63,0,20.81-8.86,20.81-20.45Z"/><path class="cls-1" d="M127.59,176.1h-27v42.59c0,9,5.28,13.89,11.58,13.89a16.56,16.56,0,0,0,9.38-2.74v12.21a41.88,41.88,0,0,1-11.72,2.13c-14.22,0-23-7-23-22.58V176.1H69.91V164.5H86.77v-18l13.77-4.58V164.5h27.05Z"/><path class="cls-1" d="M172.94,176.1H153.16v42.59c0,9,5.27,13.89,11.57,13.89a16.6,16.6,0,0,0,9.39-2.74v12.21a42,42,0,0,1-11.73,2.13c-14.21,0-23-7-23-22.58V176.1H122.53V164.5h16.86v-18l13.77-4.58V164.5h19.78Z"/><path class="cls-1" d="M243.87,239.15c-5.27,2-11.29,5-23.6,5-26.52,0-38.68-16.79-38.68-42.13,0-23.05,13.92-39.38,35-39.38,24.91,0,33,18.93,33,44H196.24c0,15.42,11.58,26,24.62,26,9.09,0,19.64-4.88,23-7.79Zm-8.94-43.21c0-11.9-6.75-21.67-18.61-21.67-13.49,0-19,11.61-20.08,21.67Z"/><path class="cls-1" d="M262.93,164.5h13.33v12.36h.3c4.1-8.85,14.06-14.19,24.47-14.19,19.35,0,28,12.52,28,33.43v46.24H315.24V202.05c0-18.16-3.8-27-15.82-27.78-15.68,0-22.71,13.13-22.71,32.06v36H262.93Z"/><path class="cls-1" d="M398.07,231.36h-.29c-3.66,5.8-12.17,12.82-25.5,12.82-22.57,0-32.09-20.91-32.09-42.13,0-20.92,10.55-39.38,32.23-39.38,13.05,0,20.52,5.34,24.77,12.52h.29V127.86h13.78V242.34H398.07Zm-22.57,1.22c15.54,0,22-16,22-29,0-14.5-7.17-29.31-22.12-29.31s-20.81,14.65-20.52,28.85C354.55,215.33,360.7,232.58,375.5,232.58Z"/><path class="cls-1" d="M434.55,170a46.18,46.18,0,0,1,24.62-7.33c21.39,0,30,11,30,32.21v32.2a128.18,128.18,0,0,0,.59,15.26H476.91V232.27h-.3a27.41,27.41,0,0,1-23.15,11.91c-16.12,0-27.41-7.32-27.41-24.27,0-19.53,20.52-25.64,34.73-25.64,5.43,0,9.23,0,14.66.3,0-13.44-4.69-20.3-18.47-20.3a34.26,34.26,0,0,0-21.68,7.94Zm40.89,35.26c-2.93,0-5.86-.31-8.79-.31-7.48,0-25.94,1.22-25.94,15,0,8.25,7.61,12.67,13.92,12.67,13.62,0,20.81-8.86,20.81-20.45Z"/><path class="cls-1" d="M506.67,164.5H520v12.36h.29c4.1-8.85,14.07-14.19,24.47-14.19,19.35,0,28,12.52,28,33.43v46.24H559V202.05c0-18.16-3.81-27-15.83-27.78-15.68,0-22.71,13.13-22.71,32.06v36H506.67Z"/><path class="cls-1" d="M640,177.63a38.59,38.59,0,0,0-14.94-3.36c-15.4,0-24.05,14.35-24.05,29.16,0,13.89,7.19,29.15,24.92,29.15a28,28,0,0,0,14.8-4.42l1,12.81c-5.72,2.76-12.32,3.21-17.3,3.21-22.56,0-38.1-18.47-38.1-40.75,0-23.66,15.24-40.76,38.1-40.76a49.74,49.74,0,0,1,16.71,3.05Z"/><path class="cls-1" d="M713.41,239.15c-5.28,2-11.29,5-23.6,5-26.52,0-38.69-16.79-38.69-42.13,0-23.05,13.92-39.38,35-39.38,24.91,0,33,18.93,33,44H665.78c0,15.42,11.58,26,24.62,26,9.08,0,19.63-4.88,23-7.79Zm-8.94-43.21c0-11.9-6.74-21.67-18.61-21.67-13.48,0-19.05,11.61-20.08,21.67Z"/><path class="cls-1" d="M386,62.12c0,34.31-28.06,62.11-62.67,62.11a62.66,62.66,0,0,1-38.48-13.16,49.53,49.53,0,0,1-86.54-20.54,43.14,43.14,0,0,1,4.67-86.07,43.51,43.51,0,0,1,40.28,26.83c1.11-.08,2.21-.17,3.33-.17a49.48,49.48,0,0,1,20.2,4.34A62.66,62.66,0,0,1,323.29,0C357.9,0,386,27.81,386,62.12ZM197.18,81.21c0-.37-.06-.73-.06-1.09a49.06,49.06,0,0,1,36.72-47.3,34.41,34.41,0,0,0-65.31,14.84A34.19,34.19,0,0,0,197.18,81.21ZM278,105a61.52,61.52,0,0,1-14.61-61A39.86,39.86,0,1,0,278,105Zm98.81-42.83c0-29.24-24-53-53.5-53s-53.5,23.79-53.5,53,24,53,53.5,53S376.79,91.35,376.79,62.12Z"/><path class="cls-1" d="M24.51,322c-15.28,0-20.87-9.5-20.87-19.13,0-17.84,9.36-29.49,27.47-29.49,15.28,0,20.87,9.5,20.87,19.19C52,310.33,42.62,322,24.51,322Zm5.79-39.32c-9.69,0-13.73,11.24-13.73,19.18,0,5.93,2.22,10.84,8.75,10.84,9.69,0,13.73-11.24,13.73-19.12C39.05,287.64,36.83,282.66,30.3,282.66Z"/><path class="cls-1" d="M71.29,274.17H87l9.63,32.59h.13l6.6-32.59h11.85l-10,47H89.6l-9.83-32.52h-.13l-6.53,32.52H61.26Z"/><path class="cls-1" d="M163.17,274.17h16.29c14.95,0,24,6.33,24,18.85,0,19.66-12.32,28.15-30,28.15H153.2Zm4.71,37.71h5.52c12.32,0,17.1-9.23,17.1-18s-5.92-10.44-13.6-10.44h-3.1Z"/><path class="cls-1" d="M223.75,274.17h33.06L255,283.06H234.32l-2.16,9.69h19.6l-2,8.89H230.28L228,312.28h21.48l-1.82,8.89h-34Z"/><path class="cls-1" d="M272.48,274.17h19.66l.74,31.58H293l14.74-31.58h20.07l-10,47H305.61l8.55-38.51H314l-18.44,38.51H283.72L282,282.66h-.14l-8.15,38.51H262.25Z"/><path class="cls-1" d="M358.65,274.17H374.4l7.68,47H369.42l-1.28-10H349.89l-5.58,10h-13.6Zm6.26,9.7h-.14l-10,18.38h12.12Z"/><path class="cls-1" d="M404.82,274.17H420.5l9.64,32.59h.13l6.6-32.59h11.85l-10,47H423.13l-9.83-32.52h-.13l-6.53,32.52H394.79Z"/><path class="cls-1" d="M465.33,274.17h16.3c14.94,0,24,6.33,24,18.85,0,19.66-12.33,28.15-30,28.15H455.37Zm4.72,37.71h5.52c12.32,0,17.1-9.23,17.1-18s-5.93-10.44-13.6-10.44H476Z"/><path class="cls-1" d="M518.44,310.26h12l-10,18.25H510.7Z"/><path class="cls-1" d="M586.15,274.17h12.66l-9.76,47H576.39Z"/><path class="cls-1" d="M616.24,274.17h15.69l9.63,32.59h.14l6.59-32.59h11.85l-10,47H634.56l-9.83-32.52h-.13l-6.53,32.52H606.21Z"/><path class="cls-1" d="M712.44,285.48a22.22,22.22,0,0,0-11.72-2.82c-12.58,0-17.63,8.88-17.63,17.77,0,8.35,5.32,12.25,12.86,12.25a26.37,26.37,0,0,0,11.91-2.62l-1.34,10.1A45.58,45.58,0,0,1,694,322c-15.15,0-23.83-9-23.83-21.89,0-15.62,11-26.73,28.61-26.73,9,0,14.08,1.55,16.63,2.5Z"/><path class="cls-1" d="M722.4,310.26h11.37l-2.28,10.91H720.11Z"/></g></g></svg>