<svg xmlns="http://www.w3.org/2000/svg" viewBox="0 0 646.86 129.92"><defs><style>.cls-1{fill:#fff;}.cls-2{fill:#576423;}.cls-3{fill:#e7a614;}.cls-4{fill:#79496a;}.cls-5{fill:#b42e34;}</style></defs><title>AODinc_Horizontal_Color_WhiteText</title><g id="Layer_2" data-name="Layer 2"><g id="Layer_1-2" data-name="Layer 1"><path class="cls-1" d="M637.1,21.12a9.77,9.77,0,1,1-9.77,9.78A9.78,9.78,0,0,1,637.1,21.12Zm0,18.08c4.48,0,7.87-3.63,7.87-8.3s-3.39-8.32-7.87-8.32-7.93,3.63-7.93,8.32A8,8,0,0,0,637.13,39.2Zm-3.77-14.05h4.39c2.62,0,3.92,1.06,3.92,3.23a2.92,2.92,0,0,1-2.94,3.17L642,36.6h-2l-3.2-5.05h-1.57V36.6h-1.87Zm1.87,4.93h2.22c1.43,0,2.35-.29,2.35-1.79,0-1.29-1.16-1.67-2.35-1.67h-2.22Z"/><path class="cls-1" d="M160.82,27.28a29.88,29.88,0,0,1,15.94-4.74c13.85,0,19.45,7.11,19.45,20.85V64.25a82.8,82.8,0,0,0,.38,9.88h-8.35V67.61h-.19a17.76,17.76,0,0,1-15,7.71c-10.44,0-17.74-4.74-17.74-15.72C155.32,47,168.6,43,177.81,43c3.51,0,6,0,9.48.2,0-8.71-3-13.15-11.95-13.15a22.24,22.24,0,0,0-14.05,5.14Zm26.47,22.84c-1.89,0-3.79-.2-5.69-.2-4.84,0-16.79.79-16.79,9.68,0,5.34,4.93,8.21,9,8.21,8.82,0,13.47-5.74,13.47-13.25Z"/><path class="cls-1" d="M237.94,31.24H220.42V58.81c0,5.83,3.42,9,7.5,9A10.7,10.7,0,0,0,234,66v7.91a27,27,0,0,1-7.59,1.38c-9.2,0-14.9-4.55-14.9-14.63V31.24H200.59V23.72H211.5V12.06l8.92-3V23.72h17.52Z"/><path class="cls-1" d="M267.3,31.24H254.49V58.81c0,5.83,3.42,9,7.5,9A10.7,10.7,0,0,0,268.06,66v7.91a27.08,27.08,0,0,1-7.59,1.38c-9.21,0-14.9-4.55-14.9-14.63V31.24H234.66V23.72h10.91V12.06l8.92-3V23.72H267.3Z"/><path class="cls-1" d="M313.23,72.06c-3.42,1.28-7.31,3.26-15.28,3.26-17.18,0-25.05-10.88-25.05-27.28,0-14.92,9-25.5,22.68-25.5,16.13,0,21.35,12.26,21.35,28.46H282.39c0,10,7.5,16.81,15.94,16.81,5.88,0,12.72-3.17,14.9-5.05Zm-5.79-28c0-7.7-4.37-14-12.05-14-8.73,0-12.34,7.52-13,14Z"/><path class="cls-1" d="M325.57,23.72h8.63v8h.19c2.66-5.73,9.11-9.19,15.85-9.19,12.53,0,18.12,8.1,18.12,21.64V74.13h-8.91V48c0-11.76-2.47-17.5-10.25-18-10.16,0-14.71,8.5-14.71,20.76V74.13h-8.92Z"/><path class="cls-1" d="M413.08,67h-.19c-2.37,3.75-7.88,8.3-16.52,8.3-14.61,0-20.77-13.54-20.77-27.28,0-13.55,6.83-25.5,20.87-25.5,8.45,0,13.28,3.46,16,8.1h.19V0h8.91V74.13h-8.53Zm-14.62.79c10.06,0,14.24-10.38,14.24-18.79,0-9.38-4.65-19-14.33-19s-13.47,9.49-13.28,18.68C384.9,56.64,388.88,67.81,398.46,67.81Z"/><path class="cls-1" d="M436.7,27.28a29.88,29.88,0,0,1,15.94-4.74c13.85,0,19.45,7.11,19.45,20.85V64.25a85.2,85.2,0,0,0,.38,9.88h-8.35V67.61h-.18a17.8,17.8,0,0,1-15,7.71c-10.44,0-17.74-4.74-17.74-15.72C431.2,47,444.48,43,453.69,43c3.51,0,6,0,9.49.2,0-8.71-3-13.15-12-13.15a22.21,22.21,0,0,0-14.05,5.14Zm26.48,22.84c-1.91,0-3.8-.2-5.7-.2-4.84,0-16.79.79-16.79,9.68,0,5.34,4.93,8.21,9,8.21,8.82,0,13.48-5.74,13.48-13.25Z"/><path class="cls-1" d="M483.4,23.72H492v8h.18c2.66-5.73,9.11-9.19,15.85-9.19,12.52,0,18.12,8.1,18.12,21.64V74.13h-8.92V48c0-11.76-2.46-17.5-10.24-18-10.16,0-14.71,8.5-14.71,20.76V74.13H483.4Z"/><path class="cls-1" d="M569.75,32.22a25,25,0,0,0-9.68-2.17c-10,0-15.57,9.29-15.57,18.88,0,9,4.65,18.88,16.14,18.88a18.07,18.07,0,0,0,9.58-2.87l.66,8.3c-3.7,1.78-8,2.08-11.2,2.08-14.61,0-24.67-12-24.67-26.39,0-15.32,9.87-26.39,24.67-26.39a32.12,32.12,0,0,1,10.82,2Z"/><path class="cls-1" d="M617.27,72.06c-3.43,1.28-7.32,3.26-15.28,3.26-17.18,0-25.06-10.88-25.06-27.28,0-14.92,9-25.5,22.69-25.5C615.75,22.54,621,34.8,621,51H586.42c0,10,7.5,16.81,16,16.81,5.88,0,12.71-3.17,14.9-5.05Zm-5.8-28c0-7.7-4.36-14-12-14-8.73,0-12.34,7.52-13,14Z"/><path class="cls-1" d="M106.15,7.13a40.56,40.56,0,0,0-36.61,23,32.06,32.06,0,0,0-13.08-2.81c-.73,0-1.44.06-2.15.11A28.15,28.15,0,1,0,25.19,65.75a32.08,32.08,0,0,0,56,13.3,40.61,40.61,0,0,0,65.5-31.7A40.4,40.4,0,0,0,106.15,7.13Z"/><path class="cls-2" d="M5.94,38a22.28,22.28,0,0,1,42.29-9.61A31.76,31.76,0,0,0,24.45,59c0,.24,0,.47,0,.71A22.14,22.14,0,0,1,5.94,38Z"/><path class="cls-3" d="M56.46,84.84A25.84,25.84,0,1,1,67.35,35.57a39.84,39.84,0,0,0,9.46,39.51A26.09,26.09,0,0,1,56.46,84.84Z"/><path class="cls-4" d="M106.15,81.68a34.34,34.34,0,1,1,34.64-34.33A34.53,34.53,0,0,1,106.15,81.68Z"/><path class="cls-5" d="M171.19,125.69c-9.9,0-13.51-6.15-13.51-12.38,0-11.55,6-19.1,17.78-19.1,9.9,0,13.52,6.15,13.52,12.43C189,118.15,182.92,125.69,171.19,125.69Zm3.75-25.46c-6.28,0-8.89,7.28-8.89,12.43,0,3.83,1.43,7,5.66,7,6.28,0,8.9-7.29,8.9-12.39C180.61,103.46,179.17,100.23,174.94,100.23Z"/><path class="cls-5" d="M201.48,94.74h10.16l6.23,21.1H218l4.27-21.1h7.68l-6.46,30.43H213.34L207,104.11h-.08l-4.23,21.06H195Z"/><path class="cls-5" d="M261,94.74h10.55c9.68,0,15.52,4.1,15.52,12.21,0,12.73-8,18.22-19.4,18.22H254.52Zm3,24.41h3.58c8,0,11.07-6,11.07-11.64s-3.83-6.76-8.8-6.76h-2Z"/><path class="cls-5" d="M300.2,94.74h21.41l-1.18,5.75H307l-1.39,6.28h12.69l-1.27,5.76H304.43L303,119.41h13.9l-1.17,5.76h-22Z"/><path class="cls-5" d="M331.76,94.74h12.73l.47,20.44h.09l9.55-20.44h13l-6.45,30.43h-7.93l5.53-24.94h-.09l-11.94,24.94H339l-1.14-24.94h-.08l-5.28,24.94h-7.41Z"/><path class="cls-5" d="M387.55,94.74h10.2l5,30.43h-8.19l-.83-6.5H381.88l-3.62,6.5h-8.8ZM391.6,101h-.08l-6.45,11.9h7.84Z"/><path class="cls-5" d="M417.45,94.74H427.6l6.24,21.1h.09l4.27-21.1h7.67l-6.45,30.43H429.3l-6.36-21.06h-.09l-4.23,21.06H411Z"/><path class="cls-5" d="M456.63,94.74h10.55c9.68,0,15.52,4.1,15.52,12.21,0,12.73-8,18.22-19.4,18.22H450.18Zm3.05,24.41h3.58c8,0,11.07-6,11.07-11.64s-3.84-6.76-8.8-6.76h-2Z"/><path class="cls-5" d="M491,118.11h7.76l-6.5,11.81H486Z"/><path class="cls-5" d="M534.86,94.74h8.2l-6.32,30.43h-8.2Z"/><path class="cls-5" d="M554.35,94.74h10.16l6.23,21.1h.09l4.27-21.1h7.67l-6.45,30.43H566.21l-6.37-21.06h-.08l-4.23,21.06h-7.68Z"/><path class="cls-5" d="M616.64,102.06a14.38,14.38,0,0,0-7.59-1.83c-8.15,0-11.42,5.76-11.42,11.51,0,5.41,3.45,7.94,8.33,7.94a17.15,17.15,0,0,0,7.71-1.7l-.87,6.53a29.22,29.22,0,0,1-8.11,1.18c-9.81,0-15.43-5.8-15.43-14.17,0-10.11,7.11-17.31,18.53-17.31a30,30,0,0,1,10.77,1.62Z"/><path class="cls-5" d="M623.08,118.11h7.37L629,125.17H621.6Z"/></g></g></svg>