<svg xmlns="http://www.w3.org/2000/svg" viewBox="0 0 781.13 338.03"><defs><style>.cls-1{fill:#fff;}.cls-2{fill:#576423;}.cls-3{fill:#e7a614;}.cls-4{fill:#79496a;}.cls-5{fill:#b42e34;}</style></defs><title>AOD_Inc_White_Text_Full_Color</title><g id="Layer_2" data-name="Layer 2"><g id="Layer_1-2" data-name="Layer 1"><path class="cls-1" d="M765.61,165.14a15.53,15.53,0,1,1-15.53,15.53A15.54,15.54,0,0,1,765.61,165.14Zm0,28.72c7.13,0,12.51-5.76,12.51-13.19s-5.38-13.21-12.51-13.21-12.6,5.76-12.6,13.21S758.42,193.86,765.65,193.86Zm-6-22.32h7c4.16,0,6.23,1.68,6.23,5.13,0,2.92-1.85,5-4.67,5l5.15,8h-3.14l-5.07-8h-2.5v8h-3Zm3,7.83h3.52c2.28,0,3.74-.47,3.74-2.84,0-2.06-1.85-2.66-3.74-2.66h-3.52Z"/><path class="cls-1" d="M8.75,174.93a47.46,47.46,0,0,1,25.32-7.54c22,0,30.92,11.3,30.92,33.14v33.14a132.32,132.32,0,0,0,.6,15.7H52.32V239H52a28.21,28.21,0,0,1-23.83,12.25c-16.58,0-28.19-7.53-28.19-25,0-20.11,21.11-26.39,35.74-26.39,5.58,0,9.5,0,15.07.31,0-13.82-4.82-20.89-19-20.89A35.27,35.27,0,0,0,9.5,187.49Zm42.06,36.28c-3,0-6-.31-9-.31-7.7,0-26.69,1.25-26.69,15.39,0,8.48,7.84,13,14.32,13,14,0,21.41-9.11,21.41-21Z"/><path class="cls-1" d="M131.29,181.21H103.46V225c0,9.27,5.43,14.29,11.91,14.29A17.08,17.08,0,0,0,125,236.5v12.56a42.72,42.72,0,0,1-12.07,2.2c-14.63,0-23.68-7.22-23.68-23.24V181.21H71.94V169.27H89.28V150.73L103.46,146v23.25h27.83Z"/><path class="cls-1" d="M178,181.21H157.6V225c0,9.27,5.43,14.29,11.91,14.29a17,17,0,0,0,9.65-2.82v12.56a42.58,42.58,0,0,1-12.06,2.2c-14.63,0-23.67-7.22-23.67-23.24V181.21H126.08V169.27h17.35V150.73L157.6,146v23.25H178Z"/><path class="cls-1" d="M250.94,246.08c-5.43,2-11.62,5.18-24.28,5.18-27.29,0-39.81-17.28-39.81-43.35,0-23.72,14.33-40.52,36-40.52,25.63,0,33.93,19.48,33.93,45.23H201.93c0,15.87,11.92,26.7,25.33,26.7,9.35,0,20.21-5,23.68-8Zm-9.2-44.46c0-12.24-6.94-22.3-19.15-22.3-13.88,0-19.6,12-20.66,22.3Z"/><path class="cls-1" d="M270.55,169.27h13.72V182h.3c4.22-9.11,14.48-14.6,25.19-14.6,19.9,0,28.8,12.87,28.8,34.39v47.59H324.38V207.91c0-18.69-3.92-27.8-16.28-28.59-16.14,0-23.37,13.52-23.37,33v37.06H270.55Z"/><path class="cls-1" d="M409.61,238.07h-.3c-3.77,6-12.52,13.19-26.24,13.19-23.22,0-33-21.52-33-43.35,0-21.52,10.86-40.52,33.17-40.52,13.42,0,21.11,5.49,25.49,12.87h.3V131.57h14.17v117.8H409.61Zm-23.22,1.25c16,0,22.62-16.49,22.62-29.84,0-14.92-7.39-30.16-22.77-30.16S364.83,194.4,365.13,209C364.83,221.57,371.16,239.32,386.39,239.32Z"/><path class="cls-1" d="M447.15,174.93a47.53,47.53,0,0,1,25.34-7.54c22,0,30.9,11.3,30.9,33.14v33.14a131.33,131.33,0,0,0,.61,15.7H490.73V239h-.3a28.25,28.25,0,0,1-23.83,12.25c-16.58,0-28.2-7.53-28.2-25,0-20.11,21.11-26.39,35.74-26.39,5.58,0,9.5,0,15.09.31,0-13.82-4.83-20.89-19-20.89a35.3,35.3,0,0,0-22.32,8.17Zm42.08,36.28c-3,0-6-.31-9.05-.31-7.69,0-26.69,1.25-26.69,15.39,0,8.48,7.83,13,14.32,13,14,0,21.42-9.11,21.42-21Z"/><path class="cls-1" d="M521.36,169.27h13.73V182h.29c4.23-9.11,14.48-14.6,25.19-14.6,19.9,0,28.8,12.87,28.8,34.39v47.59H575.19V207.91c0-18.69-3.91-27.8-16.28-28.59-16.14,0-23.38,13.52-23.38,33v37.06H521.36Z"/><path class="cls-1" d="M658.58,182.78a39.69,39.69,0,0,0-15.38-3.46c-15.84,0-24.74,14.77-24.74,30,0,14.3,7.39,30,25.64,30a28.77,28.77,0,0,0,15.23-4.55L660.39,248c-5.89,2.83-12.68,3.3-17.8,3.3-23.22,0-39.21-19-39.21-41.94,0-24.34,15.68-41.93,39.21-41.93a51.1,51.1,0,0,1,17.19,3.14Z"/><path class="cls-1" d="M734.09,246.08c-5.43,2-11.62,5.18-24.28,5.18C682.52,251.26,670,234,670,207.91c0-23.72,14.32-40.52,36-40.52,25.64,0,33.93,19.48,33.93,45.23H685.08c0,15.87,11.91,26.7,25.34,26.7,9.34,0,20.19-5,23.67-8Zm-9.2-44.46c0-12.24-6.93-22.3-19.15-22.3-13.87,0-19.6,12-20.66,22.3Z"/><path class="cls-1" d="M332.67,0a64.49,64.49,0,0,0-58.19,36.48A51,51,0,0,0,253.7,32c-1.16,0-2.29.1-3.42.17A44.88,44.88,0,0,0,164,49.05a44.53,44.53,0,0,0,40,44.11,51,51,0,0,0,89,21.13,64.46,64.46,0,0,0,39.6,13.54c35.61,0,64.48-28.61,64.48-63.91S368.28,0,332.67,0Z"/><path class="cls-2" d="M173.41,49.05a35.41,35.41,0,0,1,67.21-15.28,50.47,50.47,0,0,0-37.78,48.67c0,.38,0,.75.06,1.12A35.17,35.17,0,0,1,173.41,49.05Z"/><path class="cls-3" d="M253.7,123.5A41.06,41.06,0,1,1,271,45.2,63.39,63.39,0,0,0,286,108,41.45,41.45,0,0,1,253.7,123.5Z"/><path class="cls-4" d="M332.67,118.48c-30.36,0-55.06-24.48-55.06-54.56s24.7-54.56,55.06-54.56,55,24.47,55,54.56S363,118.48,332.67,118.48Z"/><path class="cls-5" d="M25.22,331.31c-15.72,0-21.47-9.77-21.47-19.68,0-18.35,9.63-30.34,28.26-30.34,15.73,0,21.48,9.77,21.48,19.74C53.49,319.32,43.86,331.31,25.22,331.31Zm6-40.46c-10,0-14.13,11.57-14.13,19.74,0,6.1,2.29,11.16,9,11.16,10,0,14.13-11.57,14.13-19.68C40.19,296,37.9,290.85,31.18,290.85Z"/><path class="cls-5" d="M73.36,282.12H89.5l9.91,33.53h.14l6.79-33.53h12.19l-10.25,48.36H92.2L82.09,297H82l-6.72,33.46H63Z"/><path class="cls-5" d="M167.9,282.12h16.76c15.38,0,24.67,6.51,24.67,19.4,0,20.23-12.68,29-30.83,29H157.64Zm4.85,38.8h5.68c12.68,0,17.6-9.49,17.6-18.5s-6.1-10.74-14-10.74h-3.19Z"/><path class="cls-5" d="M230.24,282.12h34l-1.87,9.15H241.11l-2.22,10h20.17l-2,9.15H237l-2.36,10.94h22.1l-1.87,9.15h-35Z"/><path class="cls-5" d="M280.38,282.12h20.23l.76,32.49h.14l15.17-32.49h20.65l-10.25,48.36H314.47l8.79-39.63h-.13l-19,39.63H292l-1.8-39.63H290l-8.38,39.63H269.85Z"/><path class="cls-5" d="M369,282.12h16.22l7.9,48.36h-13l-1.32-10.32H360l-5.75,10.32h-14Zm6.45,10h-.14L365.1,311h12.47Z"/><path class="cls-5" d="M416.55,282.12H432.7l9.91,33.53h.13l6.79-33.53h12.19l-10.25,48.36H435.4L425.28,297h-.13l-6.72,33.46h-12.2Z"/><path class="cls-5" d="M478.82,282.12h16.77c15.38,0,24.67,6.51,24.67,19.4,0,20.23-12.68,29-30.84,29H468.57Zm4.85,38.8h5.69c12.67,0,17.59-9.49,17.59-18.5s-6.09-10.74-14-10.74h-3.19Z"/><path class="cls-5" d="M533.47,319.26H545.8L535.48,338h-10Z"/><path class="cls-5" d="M603.15,282.12h13l-10,48.36h-13Z"/><path class="cls-5" d="M634.11,282.12h16.14l9.91,33.53h.14l6.79-33.53h12.19L669,330.48H653L642.84,297h-.14L636,330.48H623.79Z"/><path class="cls-5" d="M733.1,293.76A22.86,22.86,0,0,0,721,290.85c-12.95,0-18.15,9.15-18.15,18.29,0,8.59,5.47,12.61,13.23,12.61a27.2,27.2,0,0,0,12.27-2.7L727,329.44a46.83,46.83,0,0,1-12.89,1.87c-15.59,0-24.52-9.21-24.52-22.52,0-16.07,11.29-27.5,29.44-27.5,9.28,0,14.48,1.59,17.12,2.56Z"/><path class="cls-5" d="M743.34,319.26h11.71l-2.36,11.22H741Z"/></g></g></svg>